<svg xmlns="http://www.w3.org/2000/svg" xmlns:xlink="http://www.w3.org/1999/xlink" width="40" zoomAndPan="magnify" viewBox="0 0 30 30.000001" height="40" preserveAspectRatio="xMidYMid meet" version="1.0"><defs><filter x="0%" y="0%" width="100%" height="100%" id="34c41508c6"><feColorMatrix values="0 0 0 0 1 0 0 0 0 1 0 0 0 0 1 0 0 0 1 0" color-interpolation-filters="sRGB"/></filter><g/><clipPath id="00d0902316"><path d="M 0.484375 6 L 29.515625 6 L 29.515625 23 L 0.484375 23 Z M 0.484375 6 " clip-rule="nonzero"/></clipPath><clipPath id="91f76e10c4"><path d="M 14 0.734375 L 29.515625 0.734375 L 29.515625 16.066406 L 14 16.066406 Z M 14 0.734375 " clip-rule="nonzero"/></clipPath><mask id="dc63980e3a"><g filter="url(#34c41508c6)"><rect x="-6.6" width="43.2" fill="#000000" y="-12.6" height="43.200001" fill-opacity="0.21"/></g></mask><clipPath id="35e75f0d9e"><path d="M 0.664062 1 L 15.515625 1 L 15.515625 2 L 0.664062 2 Z M 0.664062 1 " clip-rule="nonzero"/></clipPath><clipPath id="a2645aded0"><path d="M 0.664062 3 L 15.515625 3 L 15.515625 4 L 0.664062 4 Z M 0.664062 3 " clip-rule="nonzero"/></clipPath><clipPath id="e4da38e05a"><path d="M 0.664062 6 L 15.515625 6 L 15.515625 7 L 0.664062 7 Z M 0.664062 6 " clip-rule="nonzero"/></clipPath><clipPath id="c93d41082e"><path d="M 0.664062 7 L 15.515625 7 L 15.515625 8 L 0.664062 8 Z M 0.664062 7 " clip-rule="nonzero"/></clipPath><clipPath id="d34bc94249"><path d="M 0.664062 2 L 15.515625 2 L 15.515625 3 L 0.664062 3 Z M 0.664062 2 " clip-rule="nonzero"/></clipPath><clipPath id="ddd3dc66d4"><path d="M 0.664062 3 L 15.515625 3 L 15.515625 4 L 0.664062 4 Z M 0.664062 3 " clip-rule="nonzero"/></clipPath><clipPath id="79eb532a8d"><path d="M 0.664062 5 L 15.515625 5 L 15.515625 6 L 0.664062 6 Z M 0.664062 5 " clip-rule="nonzero"/></clipPath><clipPath id="bc76155e62"><path d="M 0.664062 2 L 15.515625 2 L 15.515625 3 L 0.664062 3 Z M 0.664062 2 " clip-rule="nonzero"/></clipPath><clipPath id="8ee9186693"><path d="M 0.664062 4 L 15.515625 4 L 15.515625 5 L 0.664062 5 Z M 0.664062 4 " clip-rule="nonzero"/></clipPath><clipPath id="8ddcf0b36d"><path d="M 0.664062 5 L 15.515625 5 L 15.515625 6 L 0.664062 6 Z M 0.664062 5 " clip-rule="nonzero"/></clipPath><clipPath id="4139fb6d18"><path d="M 0.664062 6 L 15.515625 6 L 15.515625 7 L 0.664062 7 Z M 0.664062 6 " clip-rule="nonzero"/></clipPath><clipPath id="f6f604f650"><path d="M 0.664062 8 L 15.515625 8 L 15.515625 9 L 0.664062 9 Z M 0.664062 8 " clip-rule="nonzero"/></clipPath><clipPath id="b49be73cc9"><path d="M 0.664062 9 L 15.515625 9 L 15.515625 10 L 0.664062 10 Z M 0.664062 9 " clip-rule="nonzero"/></clipPath><clipPath id="77bf8a5b54"><path d="M 0.664062 10 L 15.515625 10 L 15.515625 11 L 0.664062 11 Z M 0.664062 10 " clip-rule="nonzero"/></clipPath><clipPath id="61ee82ac2c"><path d="M 0.664062 11 L 15.515625 11 L 15.515625 12 L 0.664062 12 Z M 0.664062 11 " clip-rule="nonzero"/></clipPath><clipPath id="c1a448b9f6"><path d="M 0.664062 12 L 15.515625 12 L 15.515625 13 L 0.664062 13 Z M 0.664062 12 " clip-rule="nonzero"/></clipPath><clipPath id="b450d2a9e0"><path d="M 0.664062 13 L 15.515625 13 L 15.515625 14 L 0.664062 14 Z M 0.664062 13 " clip-rule="nonzero"/></clipPath><clipPath id="3b09d3edab"><path d="M 0.664062 14 L 15.515625 14 L 15.515625 15 L 0.664062 15 Z M 0.664062 14 " clip-rule="nonzero"/></clipPath><clipPath id="33cafc19b9"><path d="M 0.664062 15 L 15.515625 15 L 15.515625 15.894531 L 0.664062 15.894531 Z M 0.664062 15 " clip-rule="nonzero"/></clipPath><clipPath id="3a2ff1b0e2"><path d="M 15 0.824219 L 15.515625 0.824219 L 15.515625 15.894531 L 15 15.894531 Z M 15 0.824219 " clip-rule="nonzero"/></clipPath><clipPath id="9b87fe4567"><path d="M 12 0.824219 L 13 0.824219 L 13 15.894531 L 12 15.894531 Z M 12 0.824219 " clip-rule="nonzero"/></clipPath><clipPath id="61cd1faa28"><path d="M 10 0.824219 L 11 0.824219 L 11 15.894531 L 10 15.894531 Z M 10 0.824219 " clip-rule="nonzero"/></clipPath><clipPath id="4caddd7457"><path d="M 9 0.824219 L 10 0.824219 L 10 15.894531 L 9 15.894531 Z M 9 0.824219 " clip-rule="nonzero"/></clipPath><clipPath id="a45a1e92d9"><path d="M 13 0.824219 L 14 0.824219 L 14 15.894531 L 13 15.894531 Z M 13 0.824219 " clip-rule="nonzero"/></clipPath><clipPath id="00d911dc08"><path d="M 10 0.824219 L 11 0.824219 L 11 15.894531 L 10 15.894531 Z M 10 0.824219 " clip-rule="nonzero"/></clipPath><clipPath id="f1b1593b70"><path d="M 14 0.824219 L 15 0.824219 L 15 15.894531 L 14 15.894531 Z M 14 0.824219 " clip-rule="nonzero"/></clipPath><clipPath id="6ff7e70220"><path d="M 12 0.824219 L 13 0.824219 L 13 15.894531 L 12 15.894531 Z M 12 0.824219 " clip-rule="nonzero"/></clipPath><clipPath id="e571e42c17"><path d="M 11 0.824219 L 12 0.824219 L 12 15.894531 L 11 15.894531 Z M 11 0.824219 " clip-rule="nonzero"/></clipPath><clipPath id="0157e7de48"><path d="M 9 0.824219 L 10 0.824219 L 10 15.894531 L 9 15.894531 Z M 9 0.824219 " clip-rule="nonzero"/></clipPath><clipPath id="6735bb0725"><path d="M 8 0.824219 L 9 0.824219 L 9 15.894531 L 8 15.894531 Z M 8 0.824219 " clip-rule="nonzero"/></clipPath><clipPath id="7f54fafee8"><path d="M 7 0.824219 L 8 0.824219 L 8 15.894531 L 7 15.894531 Z M 7 0.824219 " clip-rule="nonzero"/></clipPath><clipPath id="d9a426512a"><path d="M 6 0.824219 L 7 0.824219 L 7 15.894531 L 6 15.894531 Z M 6 0.824219 " clip-rule="nonzero"/></clipPath><clipPath id="a89ebbec06"><path d="M 5 0.824219 L 6 0.824219 L 6 15.894531 L 5 15.894531 Z M 5 0.824219 " clip-rule="nonzero"/></clipPath><clipPath id="79a7e2223c"><path d="M 4 0.824219 L 5 0.824219 L 5 15.894531 L 4 15.894531 Z M 4 0.824219 " clip-rule="nonzero"/></clipPath><clipPath id="cf3af069bf"><path d="M 3 0.824219 L 4 0.824219 L 4 15.894531 L 3 15.894531 Z M 3 0.824219 " clip-rule="nonzero"/></clipPath><clipPath id="a7dd439ef0"><path d="M 2 0.824219 L 3 0.824219 L 3 15.894531 L 2 15.894531 Z M 2 0.824219 " clip-rule="nonzero"/></clipPath><clipPath id="205e7b39f7"><path d="M 1 0.824219 L 2 0.824219 L 2 15.894531 L 1 15.894531 Z M 1 0.824219 " clip-rule="nonzero"/></clipPath><clipPath id="d68b924ed3"><path d="M 0.664062 0.824219 L 15.515625 0.824219 L 15.515625 15.894531 L 0.664062 15.894531 Z M 0.664062 0.824219 " clip-rule="nonzero"/></clipPath><clipPath id="6460a9b0fa"><rect x="0" width="16" y="0" height="17"/></clipPath><clipPath id="cbc81456e7"><path d="M 0.484375 0.734375 L 15 0.734375 L 15 16.066406 L 0.484375 16.066406 Z M 0.484375 0.734375 " clip-rule="nonzero"/></clipPath><mask id="eb40968fa2"><g filter="url(#34c41508c6)"><rect x="-6.6" width="43.2" fill="#000000" y="-12.6" height="43.200001" fill-opacity="0.21"/></g></mask><clipPath id="c09a9dcdce"><path d="M 0.484375 1 L 14.742188 1 L 14.742188 2 L 0.484375 2 Z M 0.484375 1 " clip-rule="nonzero"/></clipPath><clipPath id="d785f0e334"><path d="M 0.484375 3 L 14.742188 3 L 14.742188 4 L 0.484375 4 Z M 0.484375 3 " clip-rule="nonzero"/></clipPath><clipPath id="4e6689429c"><path d="M 0.484375 6 L 14.742188 6 L 14.742188 7 L 0.484375 7 Z M 0.484375 6 " clip-rule="nonzero"/></clipPath><clipPath id="53862bb4ec"><path d="M 0.484375 7 L 14.742188 7 L 14.742188 8 L 0.484375 8 Z M 0.484375 7 " clip-rule="nonzero"/></clipPath><clipPath id="c1f1b44c01"><path d="M 0.484375 2 L 14.742188 2 L 14.742188 3 L 0.484375 3 Z M 0.484375 2 " clip-rule="nonzero"/></clipPath><clipPath id="a2a86d5934"><path d="M 0.484375 3 L 14.742188 3 L 14.742188 4 L 0.484375 4 Z M 0.484375 3 " clip-rule="nonzero"/></clipPath><clipPath id="98b28a19a7"><path d="M 0.484375 5 L 14.742188 5 L 14.742188 6 L 0.484375 6 Z M 0.484375 5 " clip-rule="nonzero"/></clipPath><clipPath id="de13da92c9"><path d="M 0.484375 2 L 14.742188 2 L 14.742188 3 L 0.484375 3 Z M 0.484375 2 " clip-rule="nonzero"/></clipPath><clipPath id="81bfcc51dc"><path d="M 0.484375 4 L 14.742188 4 L 14.742188 5 L 0.484375 5 Z M 0.484375 4 " clip-rule="nonzero"/></clipPath><clipPath id="635ab02240"><path d="M 0.484375 5 L 14.742188 5 L 14.742188 6 L 0.484375 6 Z M 0.484375 5 " clip-rule="nonzero"/></clipPath><clipPath id="d8081fc183"><path d="M 0.484375 6 L 14.742188 6 L 14.742188 7 L 0.484375 7 Z M 0.484375 6 " clip-rule="nonzero"/></clipPath><clipPath id="fe791c5d80"><path d="M 0.484375 8 L 14.742188 8 L 14.742188 9 L 0.484375 9 Z M 0.484375 8 " clip-rule="nonzero"/></clipPath><clipPath id="bd7297953b"><path d="M 0.484375 9 L 14.742188 9 L 14.742188 10 L 0.484375 10 Z M 0.484375 9 " clip-rule="nonzero"/></clipPath><clipPath id="e55f502e5a"><path d="M 0.484375 10 L 14.742188 10 L 14.742188 11 L 0.484375 11 Z M 0.484375 10 " clip-rule="nonzero"/></clipPath><clipPath id="4edaeb2856"><path d="M 0.484375 11 L 14.742188 11 L 14.742188 12 L 0.484375 12 Z M 0.484375 11 " clip-rule="nonzero"/></clipPath><clipPath id="b9b2e11628"><path d="M 0.484375 12 L 14.742188 12 L 14.742188 13 L 0.484375 13 Z M 0.484375 12 " clip-rule="nonzero"/></clipPath><clipPath id="fc5331ba2b"><path d="M 0.484375 13 L 14.742188 13 L 14.742188 14 L 0.484375 14 Z M 0.484375 13 " clip-rule="nonzero"/></clipPath><clipPath id="c3c4ada290"><path d="M 0.484375 14 L 14.742188 14 L 14.742188 15 L 0.484375 15 Z M 0.484375 14 " clip-rule="nonzero"/></clipPath><clipPath id="f79fd1ee9a"><path d="M 0.484375 15 L 14.742188 15 L 14.742188 15.894531 L 0.484375 15.894531 Z M 0.484375 15 " clip-rule="nonzero"/></clipPath><clipPath id="4efef02854"><path d="M 14 0.824219 L 14.742188 0.824219 L 14.742188 15.894531 L 14 15.894531 Z M 14 0.824219 " clip-rule="nonzero"/></clipPath><clipPath id="cdc79effb2"><path d="M 11 0.824219 L 12 0.824219 L 12 15.894531 L 11 15.894531 Z M 11 0.824219 " clip-rule="nonzero"/></clipPath><clipPath id="7e82814ec7"><path d="M 9 0.824219 L 10 0.824219 L 10 15.894531 L 9 15.894531 Z M 9 0.824219 " clip-rule="nonzero"/></clipPath><clipPath id="2c0cbfb6e5"><path d="M 8 0.824219 L 9 0.824219 L 9 15.894531 L 8 15.894531 Z M 8 0.824219 " clip-rule="nonzero"/></clipPath><clipPath id="e170f5f647"><path d="M 12 0.824219 L 13 0.824219 L 13 15.894531 L 12 15.894531 Z M 12 0.824219 " clip-rule="nonzero"/></clipPath><clipPath id="7f19c2d500"><path d="M 9 0.824219 L 10 0.824219 L 10 15.894531 L 9 15.894531 Z M 9 0.824219 " clip-rule="nonzero"/></clipPath><clipPath id="4ce8962e21"><path d="M 13 0.824219 L 14 0.824219 L 14 15.894531 L 13 15.894531 Z M 13 0.824219 " clip-rule="nonzero"/></clipPath><clipPath id="6bfce982af"><path d="M 11 0.824219 L 12 0.824219 L 12 15.894531 L 11 15.894531 Z M 11 0.824219 " clip-rule="nonzero"/></clipPath><clipPath id="e6ceeb1104"><path d="M 10 0.824219 L 11 0.824219 L 11 15.894531 L 10 15.894531 Z M 10 0.824219 " clip-rule="nonzero"/></clipPath><clipPath id="fc295ba459"><path d="M 8 0.824219 L 9 0.824219 L 9 15.894531 L 8 15.894531 Z M 8 0.824219 " clip-rule="nonzero"/></clipPath><clipPath id="ce02cf38d8"><path d="M 7 0.824219 L 8 0.824219 L 8 15.894531 L 7 15.894531 Z M 7 0.824219 " clip-rule="nonzero"/></clipPath><clipPath id="2b450e3b4d"><path d="M 6 0.824219 L 7 0.824219 L 7 15.894531 L 6 15.894531 Z M 6 0.824219 " clip-rule="nonzero"/></clipPath><clipPath id="cc9b43deef"><path d="M 5 0.824219 L 6 0.824219 L 6 15.894531 L 5 15.894531 Z M 5 0.824219 " clip-rule="nonzero"/></clipPath><clipPath id="befc1bbae7"><path d="M 4 0.824219 L 5 0.824219 L 5 15.894531 L 4 15.894531 Z M 4 0.824219 " clip-rule="nonzero"/></clipPath><clipPath id="680408259f"><path d="M 3 0.824219 L 4 0.824219 L 4 15.894531 L 3 15.894531 Z M 3 0.824219 " clip-rule="nonzero"/></clipPath><clipPath id="4b7a06aef2"><path d="M 2 0.824219 L 3 0.824219 L 3 15.894531 L 2 15.894531 Z M 2 0.824219 " clip-rule="nonzero"/></clipPath><clipPath id="f07b371657"><path d="M 1 0.824219 L 2 0.824219 L 2 15.894531 L 1 15.894531 Z M 1 0.824219 " clip-rule="nonzero"/></clipPath><clipPath id="4cfb0aece1"><path d="M 0.484375 0.824219 L 1 0.824219 L 1 15.894531 L 0.484375 15.894531 Z M 0.484375 0.824219 " clip-rule="nonzero"/></clipPath><clipPath id="4de19d8abe"><path d="M 0.484375 0.824219 L 14.742188 0.824219 L 14.742188 15.894531 L 0.484375 15.894531 Z M 0.484375 0.824219 " clip-rule="nonzero"/></clipPath><clipPath id="e87b9b33da"><rect x="0" width="15" y="0" height="17"/></clipPath><clipPath id="2ef161de6f"><rect x="0" width="30" y="0" height="17"/></clipPath><clipPath id="f527a52f4e"><path d="M 0.484375 0 L 29.515625 0 L 29.515625 29.03125 L 0.484375 29.03125 Z M 0.484375 0 " clip-rule="nonzero"/></clipPath><clipPath id="bf04a2bbdd"><path d="M 29.515625 14.515625 C 29.515625 15.46875 29.421875 16.414062 29.238281 17.347656 C 29.050781 18.28125 28.777344 19.191406 28.410156 20.070312 C 28.046875 20.953125 27.597656 21.789062 27.070312 22.582031 C 26.539062 23.375 25.9375 24.105469 25.265625 24.78125 C 24.589844 25.453125 23.855469 26.054688 23.066406 26.585938 C 22.273438 27.117188 21.4375 27.5625 20.554688 27.925781 C 19.675781 28.292969 18.765625 28.566406 17.832031 28.753906 C 16.898438 28.9375 15.953125 29.03125 15 29.03125 C 14.046875 29.03125 13.101562 28.9375 12.167969 28.753906 C 11.234375 28.566406 10.324219 28.292969 9.445312 27.925781 C 8.5625 27.5625 7.726562 27.117188 6.933594 26.585938 C 6.144531 26.054688 5.410156 25.453125 4.734375 24.78125 C 4.0625 24.105469 3.460938 23.375 2.929688 22.582031 C 2.402344 21.789062 1.953125 20.953125 1.589844 20.070312 C 1.222656 19.191406 0.949219 18.28125 0.761719 17.347656 C 0.578125 16.414062 0.484375 15.46875 0.484375 14.515625 C 0.484375 13.5625 0.578125 12.617188 0.761719 11.683594 C 0.949219 10.75 1.222656 9.839844 1.589844 8.960938 C 1.953125 8.082031 2.402344 7.242188 2.929688 6.453125 C 3.460938 5.660156 4.0625 4.925781 4.734375 4.25 C 5.410156 3.578125 6.144531 2.976562 6.933594 2.445312 C 7.726562 1.917969 8.5625 1.46875 9.445312 1.105469 C 10.324219 0.738281 11.234375 0.464844 12.167969 0.277344 C 13.101562 0.09375 14.046875 0 15 0 C 15.953125 0 16.898438 0.09375 17.832031 0.277344 C 18.765625 0.464844 19.675781 0.738281 20.554688 1.105469 C 21.4375 1.46875 22.273438 1.917969 23.066406 2.445312 C 23.855469 2.976562 24.589844 3.578125 25.265625 4.25 C 25.9375 4.925781 26.539062 5.660156 27.070312 6.453125 C 27.597656 7.242188 28.046875 8.082031 28.410156 8.960938 C 28.777344 9.839844 29.050781 10.75 29.238281 11.683594 C 29.421875 12.617188 29.515625 13.5625 29.515625 14.515625 Z M 29.515625 14.515625 " clip-rule="nonzero"/></clipPath><clipPath id="5c39119d2b"><path d="M 0.34375 2 L 8 2 L 8 10 L 0.34375 10 Z M 0.34375 2 " clip-rule="nonzero"/></clipPath><clipPath id="5e52790efa"><path d="M 21 2 L 25.890625 2 L 25.890625 10 L 21 10 Z M 21 2 " clip-rule="nonzero"/></clipPath><clipPath id="ca79b1be1c"><rect x="0" width="26" y="0" height="13"/></clipPath></defs><g clip-path="url(#00d0902316)"><g transform="matrix(1, 0, 0, 1, 0, 6)"><g clip-path="url(#2ef161de6f)"><g clip-path="url(#91f76e10c4)"><g mask="url(#dc63980e3a)"><g transform="matrix(1, 0, 0, 1, 14, 0.000000000000005329)"><g clip-path="url(#6460a9b0fa)"><g clip-path="url(#35e75f0d9e)"><path fill="#efa693" d="M 0.691406 1.425781 L 15.683594 1.425781 L 15.683594 1.484375 L 0.691406 1.484375 Z M 0.691406 1.425781 " fill-opacity="1" fill-rule="nonzero"/></g><g clip-path="url(#a2645aded0)"><path fill="#efa693" d="M 0.691406 3.824219 L 15.683594 3.824219 L 15.683594 3.882812 L 0.691406 3.882812 Z M 0.691406 3.824219 " fill-opacity="1" fill-rule="nonzero"/></g><g clip-path="url(#e4da38e05a)"><path fill="#efa693" d="M 0.691406 6.222656 L 15.683594 6.222656 L 15.683594 6.28125 L 0.691406 6.28125 Z M 0.691406 6.222656 " fill-opacity="1" fill-rule="nonzero"/></g><g clip-path="url(#c93d41082e)"><path fill="#efa693" d="M 0.691406 7.421875 L 15.683594 7.421875 L 15.683594 7.480469 L 0.691406 7.480469 Z M 0.691406 7.421875 " fill-opacity="1" fill-rule="nonzero"/></g><g clip-path="url(#d34bc94249)"><path fill="#efa693" d="M 0.691406 2.625 L 15.683594 2.625 L 15.683594 2.683594 L 0.691406 2.683594 Z M 0.691406 2.625 " fill-opacity="1" fill-rule="nonzero"/></g><g clip-path="url(#ddd3dc66d4)"><path fill="#efa693" d="M 0.691406 3.222656 L 15.683594 3.222656 L 15.683594 3.285156 L 0.691406 3.285156 Z M 0.691406 3.222656 " fill-opacity="1" fill-rule="nonzero"/></g><g clip-path="url(#79eb532a8d)"><path fill="#efa693" d="M 0.691406 5.621094 L 15.683594 5.621094 L 15.683594 5.683594 L 0.691406 5.683594 Z M 0.691406 5.621094 " fill-opacity="1" fill-rule="nonzero"/></g><g clip-path="url(#bc76155e62)"><path fill="#efa693" d="M 0.691406 2.023438 L 15.683594 2.023438 L 15.683594 2.085938 L 0.691406 2.085938 Z M 0.691406 2.023438 " fill-opacity="1" fill-rule="nonzero"/></g><g clip-path="url(#8ee9186693)"><path fill="#efa693" d="M 0.691406 4.421875 L 15.683594 4.421875 L 15.683594 4.484375 L 0.691406 4.484375 Z M 0.691406 4.421875 " fill-opacity="1" fill-rule="nonzero"/></g><g clip-path="url(#8ddcf0b36d)"><path fill="#efa693" d="M 0.691406 5.023438 L 15.683594 5.023438 L 15.683594 5.082031 L 0.691406 5.082031 Z M 0.691406 5.023438 " fill-opacity="1" fill-rule="nonzero"/></g><g clip-path="url(#4139fb6d18)"><path fill="#efa693" d="M 0.691406 6.820312 L 15.683594 6.820312 L 15.683594 6.882812 L 0.691406 6.882812 Z M 0.691406 6.820312 " fill-opacity="1" fill-rule="nonzero"/></g><g clip-path="url(#f6f604f650)"><path fill="#efa693" d="M 0.691406 8.019531 L 15.683594 8.019531 L 15.683594 8.082031 L 0.691406 8.082031 Z M 0.691406 8.019531 " fill-opacity="1" fill-rule="nonzero"/><path fill="#efa693" d="M 0.691406 8.621094 L 15.683594 8.621094 L 15.683594 8.679688 L 0.691406 8.679688 Z M 0.691406 8.621094 " fill-opacity="1" fill-rule="nonzero"/></g><g clip-path="url(#b49be73cc9)"><path fill="#efa693" d="M 0.691406 9.21875 L 15.683594 9.21875 L 15.683594 9.28125 L 0.691406 9.28125 Z M 0.691406 9.21875 " fill-opacity="1" fill-rule="nonzero"/><path fill="#efa693" d="M 0.691406 9.820312 L 15.683594 9.820312 L 15.683594 9.878906 L 0.691406 9.878906 Z M 0.691406 9.820312 " fill-opacity="1" fill-rule="nonzero"/></g><g clip-path="url(#77bf8a5b54)"><path fill="#efa693" d="M 0.691406 10.417969 L 15.683594 10.417969 L 15.683594 10.480469 L 0.691406 10.480469 Z M 0.691406 10.417969 " fill-opacity="1" fill-rule="nonzero"/></g><g clip-path="url(#61ee82ac2c)"><path fill="#efa693" d="M 0.691406 11.019531 L 15.683594 11.019531 L 15.683594 11.078125 L 0.691406 11.078125 Z M 0.691406 11.019531 " fill-opacity="1" fill-rule="nonzero"/><path fill="#efa693" d="M 0.691406 11.617188 L 15.683594 11.617188 L 15.683594 11.679688 L 0.691406 11.679688 Z M 0.691406 11.617188 " fill-opacity="1" fill-rule="nonzero"/></g><g clip-path="url(#c1a448b9f6)"><path fill="#efa693" d="M 0.691406 12.21875 L 15.683594 12.21875 L 15.683594 12.277344 L 0.691406 12.277344 Z M 0.691406 12.21875 " fill-opacity="1" fill-rule="nonzero"/><path fill="#efa693" d="M 0.691406 12.820312 L 15.683594 12.820312 L 15.683594 12.878906 L 0.691406 12.878906 Z M 0.691406 12.820312 " fill-opacity="1" fill-rule="nonzero"/></g><g clip-path="url(#b450d2a9e0)"><path fill="#efa693" d="M 0.691406 13.417969 L 15.683594 13.417969 L 15.683594 13.476562 L 0.691406 13.476562 Z M 0.691406 13.417969 " fill-opacity="1" fill-rule="nonzero"/></g><g clip-path="url(#3b09d3edab)"><path fill="#efa693" d="M 0.691406 14.019531 L 15.683594 14.019531 L 15.683594 14.078125 L 0.691406 14.078125 Z M 0.691406 14.019531 " fill-opacity="1" fill-rule="nonzero"/><path fill="#efa693" d="M 0.691406 14.617188 L 15.683594 14.617188 L 15.683594 14.675781 L 0.691406 14.675781 Z M 0.691406 14.617188 " fill-opacity="1" fill-rule="nonzero"/></g><g clip-path="url(#33cafc19b9)"><path fill="#efa693" d="M 0.691406 15.21875 L 15.683594 15.21875 L 15.683594 15.277344 L 0.691406 15.277344 Z M 0.691406 15.21875 " fill-opacity="1" fill-rule="nonzero"/></g><g clip-path="url(#3a2ff1b0e2)"><path fill="#efa693" d="M 15.054688 0.855469 L 15.113281 0.855469 L 15.113281 15.847656 L 15.054688 15.847656 Z M 15.054688 0.855469 " fill-opacity="1" fill-rule="nonzero"/></g><g clip-path="url(#9b87fe4567)"><path fill="#efa693" d="M 12.65625 0.855469 L 12.714844 0.855469 L 12.714844 15.847656 L 12.65625 15.847656 Z M 12.65625 0.855469 " fill-opacity="1" fill-rule="nonzero"/></g><g clip-path="url(#61cd1faa28)"><path fill="#efa693" d="M 10.257812 0.855469 L 10.316406 0.855469 L 10.316406 15.847656 L 10.257812 15.847656 Z M 10.257812 0.855469 " fill-opacity="1" fill-rule="nonzero"/></g><g clip-path="url(#4caddd7457)"><path fill="#efa693" d="M 9.058594 0.855469 L 9.117188 0.855469 L 9.117188 15.847656 L 9.058594 15.847656 Z M 9.058594 0.855469 " fill-opacity="1" fill-rule="nonzero"/></g><g clip-path="url(#a45a1e92d9)"><path fill="#efa693" d="M 13.855469 0.855469 L 13.914062 0.855469 L 13.914062 15.847656 L 13.855469 15.847656 Z M 13.855469 0.855469 " fill-opacity="1" fill-rule="nonzero"/><path fill="#efa693" d="M 13.253906 0.855469 L 13.316406 0.855469 L 13.316406 15.847656 L 13.253906 15.847656 Z M 13.253906 0.855469 " fill-opacity="1" fill-rule="nonzero"/></g><g clip-path="url(#00d911dc08)"><path fill="#efa693" d="M 10.855469 0.855469 L 10.917969 0.855469 L 10.917969 15.847656 L 10.855469 15.847656 Z M 10.855469 0.855469 " fill-opacity="1" fill-rule="nonzero"/></g><g clip-path="url(#f1b1593b70)"><path fill="#efa693" d="M 14.453125 0.855469 L 14.515625 0.855469 L 14.515625 15.847656 L 14.453125 15.847656 Z M 14.453125 0.855469 " fill-opacity="1" fill-rule="nonzero"/></g><g clip-path="url(#6ff7e70220)"><path fill="#efa693" d="M 12.054688 0.855469 L 12.117188 0.855469 L 12.117188 15.847656 L 12.054688 15.847656 Z M 12.054688 0.855469 " fill-opacity="1" fill-rule="nonzero"/></g><g clip-path="url(#e571e42c17)"><path fill="#efa693" d="M 11.457031 0.855469 L 11.515625 0.855469 L 11.515625 15.847656 L 11.457031 15.847656 Z M 11.457031 0.855469 " fill-opacity="1" fill-rule="nonzero"/></g><g clip-path="url(#0157e7de48)"><path fill="#efa693" d="M 9.65625 0.855469 L 9.71875 0.855469 L 9.71875 15.847656 L 9.65625 15.847656 Z M 9.65625 0.855469 " fill-opacity="1" fill-rule="nonzero"/></g><g clip-path="url(#6735bb0725)"><path fill="#efa693" d="M 8.457031 0.855469 L 8.519531 0.855469 L 8.519531 15.847656 L 8.457031 15.847656 Z M 8.457031 0.855469 " fill-opacity="1" fill-rule="nonzero"/></g><g clip-path="url(#7f54fafee8)"><path fill="#efa693" d="M 7.859375 0.855469 L 7.917969 0.855469 L 7.917969 15.847656 L 7.859375 15.847656 Z M 7.859375 0.855469 " fill-opacity="1" fill-rule="nonzero"/><path fill="#efa693" d="M 7.257812 0.855469 L 7.320312 0.855469 L 7.320312 15.847656 L 7.257812 15.847656 Z M 7.257812 0.855469 " fill-opacity="1" fill-rule="nonzero"/></g><g clip-path="url(#d9a426512a)"><path fill="#efa693" d="M 6.660156 0.855469 L 6.71875 0.855469 L 6.71875 15.847656 L 6.660156 15.847656 Z M 6.660156 0.855469 " fill-opacity="1" fill-rule="nonzero"/><path fill="#efa693" d="M 6.058594 0.855469 L 6.121094 0.855469 L 6.121094 15.847656 L 6.058594 15.847656 Z M 6.058594 0.855469 " fill-opacity="1" fill-rule="nonzero"/></g><g clip-path="url(#a89ebbec06)"><path fill="#efa693" d="M 5.460938 0.855469 L 5.519531 0.855469 L 5.519531 15.847656 L 5.460938 15.847656 Z M 5.460938 0.855469 " fill-opacity="1" fill-rule="nonzero"/></g><g clip-path="url(#79a7e2223c)"><path fill="#efa693" d="M 4.859375 0.855469 L 4.921875 0.855469 L 4.921875 15.847656 L 4.859375 15.847656 Z M 4.859375 0.855469 " fill-opacity="1" fill-rule="nonzero"/><path fill="#efa693" d="M 4.261719 0.855469 L 4.320312 0.855469 L 4.320312 15.847656 L 4.261719 15.847656 Z M 4.261719 0.855469 " fill-opacity="1" fill-rule="nonzero"/></g><g clip-path="url(#cf3af069bf)"><path fill="#efa693" d="M 3.660156 0.855469 L 3.71875 0.855469 L 3.71875 15.847656 L 3.660156 15.847656 Z M 3.660156 0.855469 " fill-opacity="1" fill-rule="nonzero"/><path fill="#efa693" d="M 3.0625 0.855469 L 3.121094 0.855469 L 3.121094 15.847656 L 3.0625 15.847656 Z M 3.0625 0.855469 " fill-opacity="1" fill-rule="nonzero"/></g><g clip-path="url(#a7dd439ef0)"><path fill="#efa693" d="M 2.460938 0.855469 L 2.519531 0.855469 L 2.519531 15.847656 L 2.460938 15.847656 Z M 2.460938 0.855469 " fill-opacity="1" fill-rule="nonzero"/></g><g clip-path="url(#205e7b39f7)"><path fill="#efa693" d="M 1.863281 0.855469 L 1.921875 0.855469 L 1.921875 15.847656 L 1.863281 15.847656 Z M 1.863281 0.855469 " fill-opacity="1" fill-rule="nonzero"/><path fill="#efa693" d="M 1.261719 0.855469 L 1.320312 0.855469 L 1.320312 15.847656 L 1.261719 15.847656 Z M 1.261719 0.855469 " fill-opacity="1" fill-rule="nonzero"/></g><g clip-path="url(#d68b924ed3)"><path fill="#efa693" d="M 15.714844 15.875 L 0.664062 15.875 L 0.664062 0.824219 L 15.714844 0.824219 Z M 0.722656 15.816406 L 15.652344 15.816406 L 15.652344 0.886719 L 0.722656 0.886719 Z M 0.722656 15.816406 " fill-opacity="1" fill-rule="nonzero"/></g></g></g></g></g><g clip-path="url(#cbc81456e7)"><g mask="url(#eb40968fa2)"><g transform="matrix(1, 0, 0, 1, 0, 0.000000000000005329)"><g clip-path="url(#e87b9b33da)"><g clip-path="url(#c09a9dcdce)"><path fill="#efa693" d="M -0.296875 1.425781 L 14.695312 1.425781 L 14.695312 1.484375 L -0.296875 1.484375 Z M -0.296875 1.425781 " fill-opacity="1" fill-rule="nonzero"/></g><g clip-path="url(#d785f0e334)"><path fill="#efa693" d="M -0.296875 3.824219 L 14.695312 3.824219 L 14.695312 3.882812 L -0.296875 3.882812 Z M -0.296875 3.824219 " fill-opacity="1" fill-rule="nonzero"/></g><g clip-path="url(#4e6689429c)"><path fill="#efa693" d="M -0.296875 6.222656 L 14.695312 6.222656 L 14.695312 6.28125 L -0.296875 6.28125 Z M -0.296875 6.222656 " fill-opacity="1" fill-rule="nonzero"/></g><g clip-path="url(#53862bb4ec)"><path fill="#efa693" d="M -0.296875 7.421875 L 14.695312 7.421875 L 14.695312 7.480469 L -0.296875 7.480469 Z M -0.296875 7.421875 " fill-opacity="1" fill-rule="nonzero"/></g><g clip-path="url(#c1f1b44c01)"><path fill="#efa693" d="M -0.296875 2.625 L 14.695312 2.625 L 14.695312 2.683594 L -0.296875 2.683594 Z M -0.296875 2.625 " fill-opacity="1" fill-rule="nonzero"/></g><g clip-path="url(#a2a86d5934)"><path fill="#efa693" d="M -0.296875 3.222656 L 14.695312 3.222656 L 14.695312 3.285156 L -0.296875 3.285156 Z M -0.296875 3.222656 " fill-opacity="1" fill-rule="nonzero"/></g><g clip-path="url(#98b28a19a7)"><path fill="#efa693" d="M -0.296875 5.621094 L 14.695312 5.621094 L 14.695312 5.683594 L -0.296875 5.683594 Z M -0.296875 5.621094 " fill-opacity="1" fill-rule="nonzero"/></g><g clip-path="url(#de13da92c9)"><path fill="#efa693" d="M -0.296875 2.023438 L 14.695312 2.023438 L 14.695312 2.085938 L -0.296875 2.085938 Z M -0.296875 2.023438 " fill-opacity="1" fill-rule="nonzero"/></g><g clip-path="url(#81bfcc51dc)"><path fill="#efa693" d="M -0.296875 4.421875 L 14.695312 4.421875 L 14.695312 4.484375 L -0.296875 4.484375 Z M -0.296875 4.421875 " fill-opacity="1" fill-rule="nonzero"/></g><g clip-path="url(#635ab02240)"><path fill="#efa693" d="M -0.296875 5.023438 L 14.695312 5.023438 L 14.695312 5.082031 L -0.296875 5.082031 Z M -0.296875 5.023438 " fill-opacity="1" fill-rule="nonzero"/></g><g clip-path="url(#d8081fc183)"><path fill="#efa693" d="M -0.296875 6.820312 L 14.695312 6.820312 L 14.695312 6.882812 L -0.296875 6.882812 Z M -0.296875 6.820312 " fill-opacity="1" fill-rule="nonzero"/></g><g clip-path="url(#fe791c5d80)"><path fill="#efa693" d="M -0.296875 8.019531 L 14.695312 8.019531 L 14.695312 8.082031 L -0.296875 8.082031 Z M -0.296875 8.019531 " fill-opacity="1" fill-rule="nonzero"/><path fill="#efa693" d="M -0.296875 8.621094 L 14.695312 8.621094 L 14.695312 8.679688 L -0.296875 8.679688 Z M -0.296875 8.621094 " fill-opacity="1" fill-rule="nonzero"/></g><g clip-path="url(#bd7297953b)"><path fill="#efa693" d="M -0.296875 9.21875 L 14.695312 9.21875 L 14.695312 9.28125 L -0.296875 9.28125 Z M -0.296875 9.21875 " fill-opacity="1" fill-rule="nonzero"/><path fill="#efa693" d="M -0.296875 9.820312 L 14.695312 9.820312 L 14.695312 9.878906 L -0.296875 9.878906 Z M -0.296875 9.820312 " fill-opacity="1" fill-rule="nonzero"/></g><g clip-path="url(#e55f502e5a)"><path fill="#efa693" d="M -0.296875 10.417969 L 14.695312 10.417969 L 14.695312 10.480469 L -0.296875 10.480469 Z M -0.296875 10.417969 " fill-opacity="1" fill-rule="nonzero"/></g><g clip-path="url(#4edaeb2856)"><path fill="#efa693" d="M -0.296875 11.019531 L 14.695312 11.019531 L 14.695312 11.078125 L -0.296875 11.078125 Z M -0.296875 11.019531 " fill-opacity="1" fill-rule="nonzero"/><path fill="#efa693" d="M -0.296875 11.617188 L 14.695312 11.617188 L 14.695312 11.679688 L -0.296875 11.679688 Z M -0.296875 11.617188 " fill-opacity="1" fill-rule="nonzero"/></g><g clip-path="url(#b9b2e11628)"><path fill="#efa693" d="M -0.296875 12.21875 L 14.695312 12.21875 L 14.695312 12.277344 L -0.296875 12.277344 Z M -0.296875 12.21875 " fill-opacity="1" fill-rule="nonzero"/><path fill="#efa693" d="M -0.296875 12.820312 L 14.695312 12.820312 L 14.695312 12.878906 L -0.296875 12.878906 Z M -0.296875 12.820312 " fill-opacity="1" fill-rule="nonzero"/></g><g clip-path="url(#fc5331ba2b)"><path fill="#efa693" d="M -0.296875 13.417969 L 14.695312 13.417969 L 14.695312 13.476562 L -0.296875 13.476562 Z M -0.296875 13.417969 " fill-opacity="1" fill-rule="nonzero"/></g><g clip-path="url(#c3c4ada290)"><path fill="#efa693" d="M -0.296875 14.019531 L 14.695312 14.019531 L 14.695312 14.078125 L -0.296875 14.078125 Z M -0.296875 14.019531 " fill-opacity="1" fill-rule="nonzero"/><path fill="#efa693" d="M -0.296875 14.617188 L 14.695312 14.617188 L 14.695312 14.675781 L -0.296875 14.675781 Z M -0.296875 14.617188 " fill-opacity="1" fill-rule="nonzero"/></g><g clip-path="url(#f79fd1ee9a)"><path fill="#efa693" d="M -0.296875 15.21875 L 14.695312 15.21875 L 14.695312 15.277344 L -0.296875 15.277344 Z M -0.296875 15.21875 " fill-opacity="1" fill-rule="nonzero"/></g><g clip-path="url(#4efef02854)"><path fill="#efa693" d="M 14.066406 0.855469 L 14.125 0.855469 L 14.125 15.847656 L 14.066406 15.847656 Z M 14.066406 0.855469 " fill-opacity="1" fill-rule="nonzero"/></g><g clip-path="url(#cdc79effb2)"><path fill="#efa693" d="M 11.664062 0.855469 L 11.726562 0.855469 L 11.726562 15.847656 L 11.664062 15.847656 Z M 11.664062 0.855469 " fill-opacity="1" fill-rule="nonzero"/></g><g clip-path="url(#7e82814ec7)"><path fill="#efa693" d="M 9.265625 0.855469 L 9.328125 0.855469 L 9.328125 15.847656 L 9.265625 15.847656 Z M 9.265625 0.855469 " fill-opacity="1" fill-rule="nonzero"/></g><g clip-path="url(#2c0cbfb6e5)"><path fill="#efa693" d="M 8.066406 0.855469 L 8.128906 0.855469 L 8.128906 15.847656 L 8.066406 15.847656 Z M 8.066406 0.855469 " fill-opacity="1" fill-rule="nonzero"/></g><g clip-path="url(#e170f5f647)"><path fill="#efa693" d="M 12.863281 0.855469 L 12.925781 0.855469 L 12.925781 15.847656 L 12.863281 15.847656 Z M 12.863281 0.855469 " fill-opacity="1" fill-rule="nonzero"/><path fill="#efa693" d="M 12.265625 0.855469 L 12.324219 0.855469 L 12.324219 15.847656 L 12.265625 15.847656 Z M 12.265625 0.855469 " fill-opacity="1" fill-rule="nonzero"/></g><g clip-path="url(#7f19c2d500)"><path fill="#efa693" d="M 9.867188 0.855469 L 9.925781 0.855469 L 9.925781 15.847656 L 9.867188 15.847656 Z M 9.867188 0.855469 " fill-opacity="1" fill-rule="nonzero"/></g><g clip-path="url(#4ce8962e21)"><path fill="#efa693" d="M 13.464844 0.855469 L 13.523438 0.855469 L 13.523438 15.847656 L 13.464844 15.847656 Z M 13.464844 0.855469 " fill-opacity="1" fill-rule="nonzero"/></g><g clip-path="url(#6bfce982af)"><path fill="#efa693" d="M 11.066406 0.855469 L 11.125 0.855469 L 11.125 15.847656 L 11.066406 15.847656 Z M 11.066406 0.855469 " fill-opacity="1" fill-rule="nonzero"/></g><g clip-path="url(#e6ceeb1104)"><path fill="#efa693" d="M 10.464844 0.855469 L 10.527344 0.855469 L 10.527344 15.847656 L 10.464844 15.847656 Z M 10.464844 0.855469 " fill-opacity="1" fill-rule="nonzero"/></g><g clip-path="url(#fc295ba459)"><path fill="#efa693" d="M 8.667969 0.855469 L 8.726562 0.855469 L 8.726562 15.847656 L 8.667969 15.847656 Z M 8.667969 0.855469 " fill-opacity="1" fill-rule="nonzero"/></g><g clip-path="url(#ce02cf38d8)"><path fill="#efa693" d="M 7.46875 0.855469 L 7.527344 0.855469 L 7.527344 15.847656 L 7.46875 15.847656 Z M 7.46875 0.855469 " fill-opacity="1" fill-rule="nonzero"/></g><g clip-path="url(#2b450e3b4d)"><path fill="#efa693" d="M 6.867188 0.855469 L 6.929688 0.855469 L 6.929688 15.847656 L 6.867188 15.847656 Z M 6.867188 0.855469 " fill-opacity="1" fill-rule="nonzero"/><path fill="#efa693" d="M 6.269531 0.855469 L 6.328125 0.855469 L 6.328125 15.847656 L 6.269531 15.847656 Z M 6.269531 0.855469 " fill-opacity="1" fill-rule="nonzero"/></g><g clip-path="url(#cc9b43deef)"><path fill="#efa693" d="M 5.667969 0.855469 L 5.730469 0.855469 L 5.730469 15.847656 L 5.667969 15.847656 Z M 5.667969 0.855469 " fill-opacity="1" fill-rule="nonzero"/><path fill="#efa693" d="M 5.070312 0.855469 L 5.128906 0.855469 L 5.128906 15.847656 L 5.070312 15.847656 Z M 5.070312 0.855469 " fill-opacity="1" fill-rule="nonzero"/></g><g clip-path="url(#befc1bbae7)"><path fill="#efa693" d="M 4.46875 0.855469 L 4.53125 0.855469 L 4.53125 15.847656 L 4.46875 15.847656 Z M 4.46875 0.855469 " fill-opacity="1" fill-rule="nonzero"/></g><g clip-path="url(#680408259f)"><path fill="#efa693" d="M 3.871094 0.855469 L 3.929688 0.855469 L 3.929688 15.847656 L 3.871094 15.847656 Z M 3.871094 0.855469 " fill-opacity="1" fill-rule="nonzero"/><path fill="#efa693" d="M 3.269531 0.855469 L 3.332031 0.855469 L 3.332031 15.847656 L 3.269531 15.847656 Z M 3.269531 0.855469 " fill-opacity="1" fill-rule="nonzero"/></g><g clip-path="url(#4b7a06aef2)"><path fill="#efa693" d="M 2.671875 0.855469 L 2.730469 0.855469 L 2.730469 15.847656 L 2.671875 15.847656 Z M 2.671875 0.855469 " fill-opacity="1" fill-rule="nonzero"/><path fill="#efa693" d="M 2.070312 0.855469 L 2.132812 0.855469 L 2.132812 15.847656 L 2.070312 15.847656 Z M 2.070312 0.855469 " fill-opacity="1" fill-rule="nonzero"/></g><g clip-path="url(#f07b371657)"><path fill="#efa693" d="M 1.472656 0.855469 L 1.53125 0.855469 L 1.53125 15.847656 L 1.472656 15.847656 Z M 1.472656 0.855469 " fill-opacity="1" fill-rule="nonzero"/></g><g clip-path="url(#4cfb0aece1)"><path fill="#efa693" d="M 0.871094 0.855469 L 0.929688 0.855469 L 0.929688 15.847656 L 0.871094 15.847656 Z M 0.871094 0.855469 " fill-opacity="1" fill-rule="nonzero"/></g><g clip-path="url(#4de19d8abe)"><path fill="#efa693" d="M 14.722656 15.875 L -0.328125 15.875 L -0.328125 0.824219 L 14.722656 0.824219 Z M -0.269531 15.816406 L 14.664062 15.816406 L 14.664062 0.886719 L -0.269531 0.886719 Z M -0.269531 15.816406 " fill-opacity="1" fill-rule="nonzero"/></g></g></g></g></g></g></g></g><g clip-path="url(#f527a52f4e)"><g clip-path="url(#bf04a2bbdd)"><path fill="#000000" d="M 29.515625 0 L 0.484375 0 L 0.484375 29.03125 L 29.515625 29.03125 Z M 29.515625 0 " fill-opacity="1" fill-rule="nonzero"/></g></g><g transform="matrix(1, 0, 0, 1, 2, 8)"><g clip-path="url(#ca79b1be1c)"><g clip-path="url(#5c39119d2b)"><g fill="#a57e24" fill-opacity="1"><g transform="translate(0.37949, 8.994738)"><g><path d="M 1.84375 -4.828125 C 1.613281 -5.097656 1.414062 -5.316406 1.25 -5.484375 C 1.09375 -5.648438 0.925781 -5.78125 0.75 -5.875 C 0.582031 -5.976562 0.398438 -6.046875 0.203125 -6.078125 L 0.203125 -6.25 L 2.6875 -6.25 L 2.6875 -6.046875 L 1.484375 -6.046875 C 1.910156 -5.921875 2.441406 -5.472656 3.078125 -4.703125 L 6.078125 -0.984375 L 6.078125 0.15625 L 5.90625 0.15625 Z M 5.765625 -5.046875 C 5.765625 -5.335938 5.734375 -5.546875 5.671875 -5.671875 C 5.617188 -5.796875 5.507812 -5.882812 5.34375 -5.9375 C 5.175781 -5.988281 4.878906 -6.035156 4.453125 -6.078125 L 4.453125 -6.25 L 7.125 -6.25 L 7.125 -6.078125 C 6.789062 -6.035156 6.5625 -5.988281 6.4375 -5.9375 C 6.3125 -5.882812 6.226562 -5.796875 6.1875 -5.671875 C 6.144531 -5.546875 6.125 -5.335938 6.125 -5.046875 L 6.078125 -2.609375 L 5.8125 -2.609375 Z M 0.203125 -0.171875 C 0.535156 -0.210938 0.765625 -0.257812 0.890625 -0.3125 C 1.015625 -0.375 1.097656 -0.460938 1.140625 -0.578125 C 1.179688 -0.703125 1.203125 -0.910156 1.203125 -1.203125 L 1.25 -3.640625 L 1.515625 -3.640625 L 1.5625 -1.203125 C 1.5625 -0.910156 1.585938 -0.703125 1.640625 -0.578125 C 1.703125 -0.460938 1.816406 -0.375 1.984375 -0.3125 C 2.148438 -0.257812 2.445312 -0.210938 2.875 -0.171875 L 2.875 0 L 0.203125 0 Z M 0.203125 -0.171875 "/></g></g></g></g><g fill="#a57e24" fill-opacity="1"><g transform="translate(7.658558, 8.994738)"><g><path d="M 1.390625 -4.578125 C 1.222656 -4.984375 1.082031 -5.28125 0.96875 -5.46875 C 0.851562 -5.664062 0.726562 -5.804688 0.59375 -5.890625 C 0.46875 -5.984375 0.304688 -6.046875 0.109375 -6.078125 L 0.109375 -6.25 L 2.515625 -6.25 L 2.515625 -6.046875 L 0.9375 -6.046875 C 1.238281 -5.972656 1.492188 -5.832031 1.703125 -5.625 C 1.910156 -5.425781 2.097656 -5.128906 2.265625 -4.734375 L 3.828125 -1.078125 L 4.5625 -2.796875 L 4.78125 -2.703125 L 3.609375 0.15625 L 3.40625 0.15625 Z M 4.3125 -4.578125 C 4.132812 -4.984375 3.988281 -5.28125 3.875 -5.46875 C 3.757812 -5.664062 3.640625 -5.804688 3.515625 -5.890625 C 3.390625 -5.984375 3.222656 -6.046875 3.015625 -6.078125 L 3.015625 -6.25 L 6.859375 -6.25 L 6.859375 -6.078125 C 6.679688 -6.054688 6.535156 -6.015625 6.421875 -5.953125 C 6.304688 -5.890625 6.195312 -5.785156 6.09375 -5.640625 C 6 -5.492188 5.890625 -5.285156 5.765625 -5.015625 L 5.640625 -4.765625 L 5.453125 -4.859375 C 5.503906 -4.992188 5.546875 -5.125 5.578125 -5.25 C 5.609375 -5.382812 5.625 -5.492188 5.625 -5.578125 C 5.625 -5.710938 5.601562 -5.8125 5.5625 -5.875 C 5.519531 -5.945312 5.460938 -5.992188 5.390625 -6.015625 C 5.316406 -6.035156 5.210938 -6.046875 5.078125 -6.046875 L 3.859375 -6.046875 C 4.160156 -5.972656 4.410156 -5.832031 4.609375 -5.625 C 4.816406 -5.425781 5.003906 -5.128906 5.171875 -4.734375 L 6.890625 -0.734375 L 6.515625 0.15625 L 6.3125 0.15625 Z M 7.375 -2.96875 C 7.570312 -3.5 7.734375 -3.945312 7.859375 -4.3125 C 7.984375 -4.6875 8.066406 -4.957031 8.109375 -5.125 C 8.148438 -5.289062 8.171875 -5.4375 8.171875 -5.5625 C 8.171875 -5.675781 8.144531 -5.765625 8.09375 -5.828125 C 8.050781 -5.898438 7.972656 -5.953125 7.859375 -5.984375 C 7.742188 -6.023438 7.570312 -6.054688 7.34375 -6.078125 L 7.34375 -6.25 L 9.609375 -6.25 L 9.609375 -6.078125 C 9.347656 -6.046875 9.132812 -5.953125 8.96875 -5.796875 C 8.800781 -5.640625 8.640625 -5.378906 8.484375 -5.015625 L 7.578125 -2.890625 Z M 7.375 -2.96875 "/></g></g></g><g fill="#a57e24" fill-opacity="1"><g transform="translate(17.377651, 8.994738)"><g><path d="M 0.203125 0 L 0.203125 -0.203125 L 2.015625 -0.203125 C 1.742188 -0.285156 1.546875 -0.429688 1.421875 -0.640625 C 1.296875 -0.847656 1.234375 -1.140625 1.234375 -1.515625 L 1.234375 -4.828125 C 1.234375 -5.210938 1.210938 -5.476562 1.171875 -5.625 C 1.128906 -5.78125 1.039062 -5.882812 0.90625 -5.9375 C 0.78125 -6 0.546875 -6.046875 0.203125 -6.078125 L 0.203125 -6.25 L 1.171875 -6.25 C 1.421875 -6.25 1.613281 -6.203125 1.75 -6.109375 C 1.882812 -6.015625 1.976562 -5.859375 2.03125 -5.640625 C 2.09375 -5.429688 2.125 -5.128906 2.125 -4.734375 L 2.125 -1.421875 C 2.125 -1.035156 2.144531 -0.765625 2.1875 -0.609375 C 2.226562 -0.460938 2.3125 -0.359375 2.4375 -0.296875 C 2.570312 -0.242188 2.804688 -0.203125 3.140625 -0.171875 L 3.140625 0 Z M 2.3125 -5.84375 C 2.25 -6.039062 2.144531 -6.175781 2 -6.25 L 3.140625 -6.25 L 3.140625 -6.078125 C 2.941406 -6.066406 2.773438 -6.039062 2.640625 -6 C 2.503906 -5.96875 2.394531 -5.914062 2.3125 -5.84375 Z M 2.3125 -5.84375 "/></g></g></g><g clip-path="url(#5e52790efa)"><g fill="#a57e24" fill-opacity="1"><g transform="translate(20.730124, 8.994738)"><g><path d="M 2.546875 -0.046875 C 2.785156 -0.046875 2.992188 -0.0976562 3.171875 -0.203125 C 3.359375 -0.316406 3.5 -0.46875 3.59375 -0.65625 C 3.695312 -0.84375 3.75 -1.054688 3.75 -1.296875 C 3.75 -1.472656 3.71875 -1.625 3.65625 -1.75 C 3.59375 -1.882812 3.484375 -2.007812 3.328125 -2.125 C 3.179688 -2.25 2.976562 -2.378906 2.71875 -2.515625 L 1.71875 -3.03125 C 1.257812 -3.257812 0.90625 -3.519531 0.65625 -3.8125 C 0.414062 -4.101562 0.296875 -4.457031 0.296875 -4.875 C 0.296875 -5.164062 0.367188 -5.425781 0.515625 -5.65625 C 0.660156 -5.882812 0.863281 -6.066406 1.125 -6.203125 C 1.394531 -6.335938 1.710938 -6.410156 2.078125 -6.421875 L 2.078125 -6.21875 C 1.898438 -6.207031 1.738281 -6.148438 1.59375 -6.046875 C 1.457031 -5.941406 1.347656 -5.800781 1.265625 -5.625 C 1.179688 -5.457031 1.140625 -5.273438 1.140625 -5.078125 C 1.140625 -4.796875 1.21875 -4.554688 1.375 -4.359375 C 1.539062 -4.171875 1.8125 -3.984375 2.1875 -3.796875 L 3.140625 -3.3125 C 3.640625 -3.0625 4.003906 -2.789062 4.234375 -2.5 C 4.472656 -2.21875 4.59375 -1.90625 4.59375 -1.5625 C 4.59375 -1.207031 4.507812 -0.898438 4.34375 -0.640625 C 4.175781 -0.390625 3.9375 -0.195312 3.625 -0.0625 C 3.320312 0.0703125 2.960938 0.144531 2.546875 0.15625 Z M 4.09375 -4.390625 C 3.957031 -4.972656 3.757812 -5.410156 3.5 -5.703125 C 3.25 -5.992188 2.910156 -6.164062 2.484375 -6.21875 L 2.484375 -6.421875 C 2.628906 -6.410156 2.757812 -6.390625 2.875 -6.359375 C 3 -6.335938 3.101562 -6.3125 3.1875 -6.28125 C 3.28125 -6.257812 3.34375 -6.242188 3.375 -6.234375 C 3.5625 -6.160156 3.703125 -6.125 3.796875 -6.125 C 3.929688 -6.125 4.03125 -6.21875 4.09375 -6.40625 L 4.265625 -6.40625 L 4.265625 -4.390625 Z M 2.140625 0.15625 C 1.992188 0.15625 1.859375 0.140625 1.734375 0.109375 C 1.617188 0.0859375 1.515625 0.0625 1.421875 0.03125 C 1.335938 0 1.28125 -0.015625 1.25 -0.015625 C 1.0625 -0.0859375 0.921875 -0.125 0.828125 -0.125 C 0.691406 -0.125 0.585938 -0.03125 0.515625 0.15625 L 0.359375 0.15625 L 0.359375 -1.859375 L 0.515625 -1.859375 C 0.660156 -1.273438 0.859375 -0.835938 1.109375 -0.546875 C 1.367188 -0.253906 1.710938 -0.0859375 2.140625 -0.046875 Z M 2.140625 0.15625 "/></g></g></g></g></g></g></svg>