<svg xmlns="http://www.w3.org/2000/svg" xmlns:xlink="http://www.w3.org/1999/xlink" width="40" zoomAndPan="magnify" viewBox="0 0 30 30.000001" height="40" preserveAspectRatio="xMidYMid meet" version="1.0"><defs><filter x="0%" y="0%" width="100%" height="100%" id="5d5c28d5d0"><feColorMatrix values="0 0 0 0 1 0 0 0 0 1 0 0 0 0 1 0 0 0 1 0" color-interpolation-filters="sRGB"/></filter><g/><clipPath id="a026fb9fe5"><path d="M 0.484375 6 L 29.515625 6 L 29.515625 23 L 0.484375 23 Z M 0.484375 6 " clip-rule="nonzero"/></clipPath><clipPath id="aeecc91049"><path d="M 14 0.734375 L 29.515625 0.734375 L 29.515625 16.066406 L 14 16.066406 Z M 14 0.734375 " clip-rule="nonzero"/></clipPath><mask id="776a792ba0"><g filter="url(#5d5c28d5d0)"><rect x="-6.6" width="43.2" fill="#000000" y="-12.6" height="43.200001" fill-opacity="0.21"/></g></mask><clipPath id="6d994f891d"><path d="M 0.664062 1 L 15.515625 1 L 15.515625 2 L 0.664062 2 Z M 0.664062 1 " clip-rule="nonzero"/></clipPath><clipPath id="66ca0c22a5"><path d="M 0.664062 3 L 15.515625 3 L 15.515625 4 L 0.664062 4 Z M 0.664062 3 " clip-rule="nonzero"/></clipPath><clipPath id="bc2b81d049"><path d="M 0.664062 6 L 15.515625 6 L 15.515625 7 L 0.664062 7 Z M 0.664062 6 " clip-rule="nonzero"/></clipPath><clipPath id="51907f69b6"><path d="M 0.664062 7 L 15.515625 7 L 15.515625 8 L 0.664062 8 Z M 0.664062 7 " clip-rule="nonzero"/></clipPath><clipPath id="eaf616254e"><path d="M 0.664062 2 L 15.515625 2 L 15.515625 3 L 0.664062 3 Z M 0.664062 2 " clip-rule="nonzero"/></clipPath><clipPath id="bbff86f277"><path d="M 0.664062 3 L 15.515625 3 L 15.515625 4 L 0.664062 4 Z M 0.664062 3 " clip-rule="nonzero"/></clipPath><clipPath id="e0d913988e"><path d="M 0.664062 5 L 15.515625 5 L 15.515625 6 L 0.664062 6 Z M 0.664062 5 " clip-rule="nonzero"/></clipPath><clipPath id="21e59da23f"><path d="M 0.664062 2 L 15.515625 2 L 15.515625 3 L 0.664062 3 Z M 0.664062 2 " clip-rule="nonzero"/></clipPath><clipPath id="ac08a9b96e"><path d="M 0.664062 4 L 15.515625 4 L 15.515625 5 L 0.664062 5 Z M 0.664062 4 " clip-rule="nonzero"/></clipPath><clipPath id="0e6ab09c40"><path d="M 0.664062 5 L 15.515625 5 L 15.515625 6 L 0.664062 6 Z M 0.664062 5 " clip-rule="nonzero"/></clipPath><clipPath id="2e40a2f7b0"><path d="M 0.664062 6 L 15.515625 6 L 15.515625 7 L 0.664062 7 Z M 0.664062 6 " clip-rule="nonzero"/></clipPath><clipPath id="2ba4ca7752"><path d="M 0.664062 8 L 15.515625 8 L 15.515625 9 L 0.664062 9 Z M 0.664062 8 " clip-rule="nonzero"/></clipPath><clipPath id="888e30fdff"><path d="M 0.664062 9 L 15.515625 9 L 15.515625 10 L 0.664062 10 Z M 0.664062 9 " clip-rule="nonzero"/></clipPath><clipPath id="39bfead89d"><path d="M 0.664062 10 L 15.515625 10 L 15.515625 11 L 0.664062 11 Z M 0.664062 10 " clip-rule="nonzero"/></clipPath><clipPath id="f92a742bb1"><path d="M 0.664062 11 L 15.515625 11 L 15.515625 12 L 0.664062 12 Z M 0.664062 11 " clip-rule="nonzero"/></clipPath><clipPath id="00135472b4"><path d="M 0.664062 12 L 15.515625 12 L 15.515625 13 L 0.664062 13 Z M 0.664062 12 " clip-rule="nonzero"/></clipPath><clipPath id="bff86535cb"><path d="M 0.664062 13 L 15.515625 13 L 15.515625 14 L 0.664062 14 Z M 0.664062 13 " clip-rule="nonzero"/></clipPath><clipPath id="379330d91f"><path d="M 0.664062 14 L 15.515625 14 L 15.515625 15 L 0.664062 15 Z M 0.664062 14 " clip-rule="nonzero"/></clipPath><clipPath id="52c7add09a"><path d="M 0.664062 15 L 15.515625 15 L 15.515625 15.894531 L 0.664062 15.894531 Z M 0.664062 15 " clip-rule="nonzero"/></clipPath><clipPath id="d450ff95db"><path d="M 15 0.824219 L 15.515625 0.824219 L 15.515625 15.894531 L 15 15.894531 Z M 15 0.824219 " clip-rule="nonzero"/></clipPath><clipPath id="3954802dc0"><path d="M 12 0.824219 L 13 0.824219 L 13 15.894531 L 12 15.894531 Z M 12 0.824219 " clip-rule="nonzero"/></clipPath><clipPath id="3f26df7eb1"><path d="M 10 0.824219 L 11 0.824219 L 11 15.894531 L 10 15.894531 Z M 10 0.824219 " clip-rule="nonzero"/></clipPath><clipPath id="8181e1e5f1"><path d="M 9 0.824219 L 10 0.824219 L 10 15.894531 L 9 15.894531 Z M 9 0.824219 " clip-rule="nonzero"/></clipPath><clipPath id="76fa330fa8"><path d="M 13 0.824219 L 14 0.824219 L 14 15.894531 L 13 15.894531 Z M 13 0.824219 " clip-rule="nonzero"/></clipPath><clipPath id="69a8288dd7"><path d="M 10 0.824219 L 11 0.824219 L 11 15.894531 L 10 15.894531 Z M 10 0.824219 " clip-rule="nonzero"/></clipPath><clipPath id="8acbc811bf"><path d="M 14 0.824219 L 15 0.824219 L 15 15.894531 L 14 15.894531 Z M 14 0.824219 " clip-rule="nonzero"/></clipPath><clipPath id="62b15ed40b"><path d="M 12 0.824219 L 13 0.824219 L 13 15.894531 L 12 15.894531 Z M 12 0.824219 " clip-rule="nonzero"/></clipPath><clipPath id="3ed5995887"><path d="M 11 0.824219 L 12 0.824219 L 12 15.894531 L 11 15.894531 Z M 11 0.824219 " clip-rule="nonzero"/></clipPath><clipPath id="19b964582a"><path d="M 9 0.824219 L 10 0.824219 L 10 15.894531 L 9 15.894531 Z M 9 0.824219 " clip-rule="nonzero"/></clipPath><clipPath id="3d1cd10307"><path d="M 8 0.824219 L 9 0.824219 L 9 15.894531 L 8 15.894531 Z M 8 0.824219 " clip-rule="nonzero"/></clipPath><clipPath id="1c481e4273"><path d="M 7 0.824219 L 8 0.824219 L 8 15.894531 L 7 15.894531 Z M 7 0.824219 " clip-rule="nonzero"/></clipPath><clipPath id="19fe83c642"><path d="M 6 0.824219 L 7 0.824219 L 7 15.894531 L 6 15.894531 Z M 6 0.824219 " clip-rule="nonzero"/></clipPath><clipPath id="51f5226568"><path d="M 5 0.824219 L 6 0.824219 L 6 15.894531 L 5 15.894531 Z M 5 0.824219 " clip-rule="nonzero"/></clipPath><clipPath id="7f7c52b4e1"><path d="M 4 0.824219 L 5 0.824219 L 5 15.894531 L 4 15.894531 Z M 4 0.824219 " clip-rule="nonzero"/></clipPath><clipPath id="8547dc216f"><path d="M 3 0.824219 L 4 0.824219 L 4 15.894531 L 3 15.894531 Z M 3 0.824219 " clip-rule="nonzero"/></clipPath><clipPath id="2be90c2a5a"><path d="M 2 0.824219 L 3 0.824219 L 3 15.894531 L 2 15.894531 Z M 2 0.824219 " clip-rule="nonzero"/></clipPath><clipPath id="4e29a21a37"><path d="M 1 0.824219 L 2 0.824219 L 2 15.894531 L 1 15.894531 Z M 1 0.824219 " clip-rule="nonzero"/></clipPath><clipPath id="f4feecd41f"><path d="M 0.664062 0.824219 L 15.515625 0.824219 L 15.515625 15.894531 L 0.664062 15.894531 Z M 0.664062 0.824219 " clip-rule="nonzero"/></clipPath><clipPath id="fb07da4ff6"><rect x="0" width="16" y="0" height="17"/></clipPath><clipPath id="039e33d4b7"><path d="M 0.484375 0.734375 L 15 0.734375 L 15 16.066406 L 0.484375 16.066406 Z M 0.484375 0.734375 " clip-rule="nonzero"/></clipPath><mask id="7b1b33ae11"><g filter="url(#5d5c28d5d0)"><rect x="-6.6" width="43.2" fill="#000000" y="-12.6" height="43.200001" fill-opacity="0.21"/></g></mask><clipPath id="2aed36532e"><path d="M 0.484375 1 L 14.742188 1 L 14.742188 2 L 0.484375 2 Z M 0.484375 1 " clip-rule="nonzero"/></clipPath><clipPath id="bded2da91e"><path d="M 0.484375 3 L 14.742188 3 L 14.742188 4 L 0.484375 4 Z M 0.484375 3 " clip-rule="nonzero"/></clipPath><clipPath id="5f5f198711"><path d="M 0.484375 6 L 14.742188 6 L 14.742188 7 L 0.484375 7 Z M 0.484375 6 " clip-rule="nonzero"/></clipPath><clipPath id="833771d052"><path d="M 0.484375 7 L 14.742188 7 L 14.742188 8 L 0.484375 8 Z M 0.484375 7 " clip-rule="nonzero"/></clipPath><clipPath id="b27d58d92e"><path d="M 0.484375 2 L 14.742188 2 L 14.742188 3 L 0.484375 3 Z M 0.484375 2 " clip-rule="nonzero"/></clipPath><clipPath id="aefa6fd0ef"><path d="M 0.484375 3 L 14.742188 3 L 14.742188 4 L 0.484375 4 Z M 0.484375 3 " clip-rule="nonzero"/></clipPath><clipPath id="3dbe4c5a09"><path d="M 0.484375 5 L 14.742188 5 L 14.742188 6 L 0.484375 6 Z M 0.484375 5 " clip-rule="nonzero"/></clipPath><clipPath id="03b6f029b9"><path d="M 0.484375 2 L 14.742188 2 L 14.742188 3 L 0.484375 3 Z M 0.484375 2 " clip-rule="nonzero"/></clipPath><clipPath id="0499031f7e"><path d="M 0.484375 4 L 14.742188 4 L 14.742188 5 L 0.484375 5 Z M 0.484375 4 " clip-rule="nonzero"/></clipPath><clipPath id="9991499e85"><path d="M 0.484375 5 L 14.742188 5 L 14.742188 6 L 0.484375 6 Z M 0.484375 5 " clip-rule="nonzero"/></clipPath><clipPath id="1270ae1942"><path d="M 0.484375 6 L 14.742188 6 L 14.742188 7 L 0.484375 7 Z M 0.484375 6 " clip-rule="nonzero"/></clipPath><clipPath id="968035efc1"><path d="M 0.484375 8 L 14.742188 8 L 14.742188 9 L 0.484375 9 Z M 0.484375 8 " clip-rule="nonzero"/></clipPath><clipPath id="932acf9a87"><path d="M 0.484375 9 L 14.742188 9 L 14.742188 10 L 0.484375 10 Z M 0.484375 9 " clip-rule="nonzero"/></clipPath><clipPath id="106a0676f9"><path d="M 0.484375 10 L 14.742188 10 L 14.742188 11 L 0.484375 11 Z M 0.484375 10 " clip-rule="nonzero"/></clipPath><clipPath id="1d8766d0be"><path d="M 0.484375 11 L 14.742188 11 L 14.742188 12 L 0.484375 12 Z M 0.484375 11 " clip-rule="nonzero"/></clipPath><clipPath id="48c4461377"><path d="M 0.484375 12 L 14.742188 12 L 14.742188 13 L 0.484375 13 Z M 0.484375 12 " clip-rule="nonzero"/></clipPath><clipPath id="1b90b434d5"><path d="M 0.484375 13 L 14.742188 13 L 14.742188 14 L 0.484375 14 Z M 0.484375 13 " clip-rule="nonzero"/></clipPath><clipPath id="6875259b78"><path d="M 0.484375 14 L 14.742188 14 L 14.742188 15 L 0.484375 15 Z M 0.484375 14 " clip-rule="nonzero"/></clipPath><clipPath id="ebe0f9adbf"><path d="M 0.484375 15 L 14.742188 15 L 14.742188 15.894531 L 0.484375 15.894531 Z M 0.484375 15 " clip-rule="nonzero"/></clipPath><clipPath id="6b7d0e3a3c"><path d="M 14 0.824219 L 14.742188 0.824219 L 14.742188 15.894531 L 14 15.894531 Z M 14 0.824219 " clip-rule="nonzero"/></clipPath><clipPath id="22fbdaf1a3"><path d="M 11 0.824219 L 12 0.824219 L 12 15.894531 L 11 15.894531 Z M 11 0.824219 " clip-rule="nonzero"/></clipPath><clipPath id="1b30bdfbfd"><path d="M 9 0.824219 L 10 0.824219 L 10 15.894531 L 9 15.894531 Z M 9 0.824219 " clip-rule="nonzero"/></clipPath><clipPath id="12554fabc4"><path d="M 8 0.824219 L 9 0.824219 L 9 15.894531 L 8 15.894531 Z M 8 0.824219 " clip-rule="nonzero"/></clipPath><clipPath id="22bde4fa77"><path d="M 12 0.824219 L 13 0.824219 L 13 15.894531 L 12 15.894531 Z M 12 0.824219 " clip-rule="nonzero"/></clipPath><clipPath id="4f2e294c78"><path d="M 9 0.824219 L 10 0.824219 L 10 15.894531 L 9 15.894531 Z M 9 0.824219 " clip-rule="nonzero"/></clipPath><clipPath id="25ce6465ec"><path d="M 13 0.824219 L 14 0.824219 L 14 15.894531 L 13 15.894531 Z M 13 0.824219 " clip-rule="nonzero"/></clipPath><clipPath id="1da77742f1"><path d="M 11 0.824219 L 12 0.824219 L 12 15.894531 L 11 15.894531 Z M 11 0.824219 " clip-rule="nonzero"/></clipPath><clipPath id="307a73b97b"><path d="M 10 0.824219 L 11 0.824219 L 11 15.894531 L 10 15.894531 Z M 10 0.824219 " clip-rule="nonzero"/></clipPath><clipPath id="d997cbd197"><path d="M 8 0.824219 L 9 0.824219 L 9 15.894531 L 8 15.894531 Z M 8 0.824219 " clip-rule="nonzero"/></clipPath><clipPath id="a95bc02dfa"><path d="M 7 0.824219 L 8 0.824219 L 8 15.894531 L 7 15.894531 Z M 7 0.824219 " clip-rule="nonzero"/></clipPath><clipPath id="252cd6b5b4"><path d="M 6 0.824219 L 7 0.824219 L 7 15.894531 L 6 15.894531 Z M 6 0.824219 " clip-rule="nonzero"/></clipPath><clipPath id="e2f3216af5"><path d="M 5 0.824219 L 6 0.824219 L 6 15.894531 L 5 15.894531 Z M 5 0.824219 " clip-rule="nonzero"/></clipPath><clipPath id="9e4504b7d3"><path d="M 4 0.824219 L 5 0.824219 L 5 15.894531 L 4 15.894531 Z M 4 0.824219 " clip-rule="nonzero"/></clipPath><clipPath id="70aafefafd"><path d="M 3 0.824219 L 4 0.824219 L 4 15.894531 L 3 15.894531 Z M 3 0.824219 " clip-rule="nonzero"/></clipPath><clipPath id="95be066305"><path d="M 2 0.824219 L 3 0.824219 L 3 15.894531 L 2 15.894531 Z M 2 0.824219 " clip-rule="nonzero"/></clipPath><clipPath id="4297711934"><path d="M 1 0.824219 L 2 0.824219 L 2 15.894531 L 1 15.894531 Z M 1 0.824219 " clip-rule="nonzero"/></clipPath><clipPath id="b9495c943a"><path d="M 0.484375 0.824219 L 1 0.824219 L 1 15.894531 L 0.484375 15.894531 Z M 0.484375 0.824219 " clip-rule="nonzero"/></clipPath><clipPath id="33695bf189"><path d="M 0.484375 0.824219 L 14.742188 0.824219 L 14.742188 15.894531 L 0.484375 15.894531 Z M 0.484375 0.824219 " clip-rule="nonzero"/></clipPath><clipPath id="09f0a83dcc"><rect x="0" width="15" y="0" height="17"/></clipPath><clipPath id="6f34ca9f0b"><rect x="0" width="30" y="0" height="17"/></clipPath><clipPath id="a0fab5a6fa"><path d="M 0.484375 0 L 29.515625 0 L 29.515625 29.03125 L 0.484375 29.03125 Z M 0.484375 0 " clip-rule="nonzero"/></clipPath><clipPath id="89d962204c"><path d="M 29.515625 14.515625 C 29.515625 15.46875 29.421875 16.414062 29.238281 17.347656 C 29.050781 18.28125 28.777344 19.191406 28.410156 20.070312 C 28.046875 20.953125 27.597656 21.789062 27.070312 22.582031 C 26.539062 23.375 25.9375 24.105469 25.265625 24.78125 C 24.589844 25.453125 23.855469 26.054688 23.066406 26.585938 C 22.273438 27.117188 21.4375 27.5625 20.554688 27.925781 C 19.675781 28.292969 18.765625 28.566406 17.832031 28.753906 C 16.898438 28.9375 15.953125 29.03125 15 29.03125 C 14.046875 29.03125 13.101562 28.9375 12.167969 28.753906 C 11.234375 28.566406 10.324219 28.292969 9.445312 27.925781 C 8.5625 27.5625 7.726562 27.117188 6.933594 26.585938 C 6.144531 26.054688 5.410156 25.453125 4.734375 24.78125 C 4.0625 24.105469 3.460938 23.375 2.929688 22.582031 C 2.402344 21.789062 1.953125 20.953125 1.589844 20.070312 C 1.222656 19.191406 0.949219 18.28125 0.761719 17.347656 C 0.578125 16.414062 0.484375 15.46875 0.484375 14.515625 C 0.484375 13.5625 0.578125 12.617188 0.761719 11.683594 C 0.949219 10.75 1.222656 9.839844 1.589844 8.960938 C 1.953125 8.082031 2.402344 7.242188 2.929688 6.453125 C 3.460938 5.660156 4.0625 4.925781 4.734375 4.25 C 5.410156 3.578125 6.144531 2.976562 6.933594 2.445312 C 7.726562 1.917969 8.5625 1.46875 9.445312 1.105469 C 10.324219 0.738281 11.234375 0.464844 12.167969 0.277344 C 13.101562 0.09375 14.046875 0 15 0 C 15.953125 0 16.898438 0.09375 17.832031 0.277344 C 18.765625 0.464844 19.675781 0.738281 20.554688 1.105469 C 21.4375 1.46875 22.273438 1.917969 23.066406 2.445312 C 23.855469 2.976562 24.589844 3.578125 25.265625 4.25 C 25.9375 4.925781 26.539062 5.660156 27.070312 6.453125 C 27.597656 7.242188 28.046875 8.082031 28.410156 8.960938 C 28.777344 9.839844 29.050781 10.75 29.238281 11.683594 C 29.421875 12.617188 29.515625 13.5625 29.515625 14.515625 Z M 29.515625 14.515625 " clip-rule="nonzero"/></clipPath><clipPath id="5a6d15543f"><path d="M 0.484375 7 L 29.515625 7 L 29.515625 22 L 0.484375 22 Z M 0.484375 7 " clip-rule="nonzero"/></clipPath><clipPath id="1dd8ad046f"><rect x="0" width="30" y="0" height="15"/></clipPath></defs><g clip-path="url(#a026fb9fe5)"><g transform="matrix(1, 0, 0, 1, 0, 6)"><g clip-path="url(#6f34ca9f0b)"><g clip-path="url(#aeecc91049)"><g mask="url(#776a792ba0)"><g transform="matrix(1, 0, 0, 1, 14, 0.000000000000005329)"><g clip-path="url(#fb07da4ff6)"><g clip-path="url(#6d994f891d)"><path fill="#efa693" d="M 0.691406 1.425781 L 15.683594 1.425781 L 15.683594 1.484375 L 0.691406 1.484375 Z M 0.691406 1.425781 " fill-opacity="1" fill-rule="nonzero"/></g><g clip-path="url(#66ca0c22a5)"><path fill="#efa693" d="M 0.691406 3.824219 L 15.683594 3.824219 L 15.683594 3.882812 L 0.691406 3.882812 Z M 0.691406 3.824219 " fill-opacity="1" fill-rule="nonzero"/></g><g clip-path="url(#bc2b81d049)"><path fill="#efa693" d="M 0.691406 6.222656 L 15.683594 6.222656 L 15.683594 6.28125 L 0.691406 6.28125 Z M 0.691406 6.222656 " fill-opacity="1" fill-rule="nonzero"/></g><g clip-path="url(#51907f69b6)"><path fill="#efa693" d="M 0.691406 7.421875 L 15.683594 7.421875 L 15.683594 7.480469 L 0.691406 7.480469 Z M 0.691406 7.421875 " fill-opacity="1" fill-rule="nonzero"/></g><g clip-path="url(#eaf616254e)"><path fill="#efa693" d="M 0.691406 2.625 L 15.683594 2.625 L 15.683594 2.683594 L 0.691406 2.683594 Z M 0.691406 2.625 " fill-opacity="1" fill-rule="nonzero"/></g><g clip-path="url(#bbff86f277)"><path fill="#efa693" d="M 0.691406 3.222656 L 15.683594 3.222656 L 15.683594 3.285156 L 0.691406 3.285156 Z M 0.691406 3.222656 " fill-opacity="1" fill-rule="nonzero"/></g><g clip-path="url(#e0d913988e)"><path fill="#efa693" d="M 0.691406 5.621094 L 15.683594 5.621094 L 15.683594 5.683594 L 0.691406 5.683594 Z M 0.691406 5.621094 " fill-opacity="1" fill-rule="nonzero"/></g><g clip-path="url(#21e59da23f)"><path fill="#efa693" d="M 0.691406 2.023438 L 15.683594 2.023438 L 15.683594 2.085938 L 0.691406 2.085938 Z M 0.691406 2.023438 " fill-opacity="1" fill-rule="nonzero"/></g><g clip-path="url(#ac08a9b96e)"><path fill="#efa693" d="M 0.691406 4.421875 L 15.683594 4.421875 L 15.683594 4.484375 L 0.691406 4.484375 Z M 0.691406 4.421875 " fill-opacity="1" fill-rule="nonzero"/></g><g clip-path="url(#0e6ab09c40)"><path fill="#efa693" d="M 0.691406 5.023438 L 15.683594 5.023438 L 15.683594 5.082031 L 0.691406 5.082031 Z M 0.691406 5.023438 " fill-opacity="1" fill-rule="nonzero"/></g><g clip-path="url(#2e40a2f7b0)"><path fill="#efa693" d="M 0.691406 6.820312 L 15.683594 6.820312 L 15.683594 6.882812 L 0.691406 6.882812 Z M 0.691406 6.820312 " fill-opacity="1" fill-rule="nonzero"/></g><g clip-path="url(#2ba4ca7752)"><path fill="#efa693" d="M 0.691406 8.019531 L 15.683594 8.019531 L 15.683594 8.082031 L 0.691406 8.082031 Z M 0.691406 8.019531 " fill-opacity="1" fill-rule="nonzero"/><path fill="#efa693" d="M 0.691406 8.621094 L 15.683594 8.621094 L 15.683594 8.679688 L 0.691406 8.679688 Z M 0.691406 8.621094 " fill-opacity="1" fill-rule="nonzero"/></g><g clip-path="url(#888e30fdff)"><path fill="#efa693" d="M 0.691406 9.21875 L 15.683594 9.21875 L 15.683594 9.28125 L 0.691406 9.28125 Z M 0.691406 9.21875 " fill-opacity="1" fill-rule="nonzero"/><path fill="#efa693" d="M 0.691406 9.820312 L 15.683594 9.820312 L 15.683594 9.878906 L 0.691406 9.878906 Z M 0.691406 9.820312 " fill-opacity="1" fill-rule="nonzero"/></g><g clip-path="url(#39bfead89d)"><path fill="#efa693" d="M 0.691406 10.417969 L 15.683594 10.417969 L 15.683594 10.480469 L 0.691406 10.480469 Z M 0.691406 10.417969 " fill-opacity="1" fill-rule="nonzero"/></g><g clip-path="url(#f92a742bb1)"><path fill="#efa693" d="M 0.691406 11.019531 L 15.683594 11.019531 L 15.683594 11.078125 L 0.691406 11.078125 Z M 0.691406 11.019531 " fill-opacity="1" fill-rule="nonzero"/><path fill="#efa693" d="M 0.691406 11.617188 L 15.683594 11.617188 L 15.683594 11.679688 L 0.691406 11.679688 Z M 0.691406 11.617188 " fill-opacity="1" fill-rule="nonzero"/></g><g clip-path="url(#00135472b4)"><path fill="#efa693" d="M 0.691406 12.21875 L 15.683594 12.21875 L 15.683594 12.277344 L 0.691406 12.277344 Z M 0.691406 12.21875 " fill-opacity="1" fill-rule="nonzero"/><path fill="#efa693" d="M 0.691406 12.820312 L 15.683594 12.820312 L 15.683594 12.878906 L 0.691406 12.878906 Z M 0.691406 12.820312 " fill-opacity="1" fill-rule="nonzero"/></g><g clip-path="url(#bff86535cb)"><path fill="#efa693" d="M 0.691406 13.417969 L 15.683594 13.417969 L 15.683594 13.476562 L 0.691406 13.476562 Z M 0.691406 13.417969 " fill-opacity="1" fill-rule="nonzero"/></g><g clip-path="url(#379330d91f)"><path fill="#efa693" d="M 0.691406 14.019531 L 15.683594 14.019531 L 15.683594 14.078125 L 0.691406 14.078125 Z M 0.691406 14.019531 " fill-opacity="1" fill-rule="nonzero"/><path fill="#efa693" d="M 0.691406 14.617188 L 15.683594 14.617188 L 15.683594 14.675781 L 0.691406 14.675781 Z M 0.691406 14.617188 " fill-opacity="1" fill-rule="nonzero"/></g><g clip-path="url(#52c7add09a)"><path fill="#efa693" d="M 0.691406 15.21875 L 15.683594 15.21875 L 15.683594 15.277344 L 0.691406 15.277344 Z M 0.691406 15.21875 " fill-opacity="1" fill-rule="nonzero"/></g><g clip-path="url(#d450ff95db)"><path fill="#efa693" d="M 15.054688 0.855469 L 15.113281 0.855469 L 15.113281 15.847656 L 15.054688 15.847656 Z M 15.054688 0.855469 " fill-opacity="1" fill-rule="nonzero"/></g><g clip-path="url(#3954802dc0)"><path fill="#efa693" d="M 12.65625 0.855469 L 12.714844 0.855469 L 12.714844 15.847656 L 12.65625 15.847656 Z M 12.65625 0.855469 " fill-opacity="1" fill-rule="nonzero"/></g><g clip-path="url(#3f26df7eb1)"><path fill="#efa693" d="M 10.257812 0.855469 L 10.316406 0.855469 L 10.316406 15.847656 L 10.257812 15.847656 Z M 10.257812 0.855469 " fill-opacity="1" fill-rule="nonzero"/></g><g clip-path="url(#8181e1e5f1)"><path fill="#efa693" d="M 9.058594 0.855469 L 9.117188 0.855469 L 9.117188 15.847656 L 9.058594 15.847656 Z M 9.058594 0.855469 " fill-opacity="1" fill-rule="nonzero"/></g><g clip-path="url(#76fa330fa8)"><path fill="#efa693" d="M 13.855469 0.855469 L 13.914062 0.855469 L 13.914062 15.847656 L 13.855469 15.847656 Z M 13.855469 0.855469 " fill-opacity="1" fill-rule="nonzero"/><path fill="#efa693" d="M 13.253906 0.855469 L 13.316406 0.855469 L 13.316406 15.847656 L 13.253906 15.847656 Z M 13.253906 0.855469 " fill-opacity="1" fill-rule="nonzero"/></g><g clip-path="url(#69a8288dd7)"><path fill="#efa693" d="M 10.855469 0.855469 L 10.917969 0.855469 L 10.917969 15.847656 L 10.855469 15.847656 Z M 10.855469 0.855469 " fill-opacity="1" fill-rule="nonzero"/></g><g clip-path="url(#8acbc811bf)"><path fill="#efa693" d="M 14.453125 0.855469 L 14.515625 0.855469 L 14.515625 15.847656 L 14.453125 15.847656 Z M 14.453125 0.855469 " fill-opacity="1" fill-rule="nonzero"/></g><g clip-path="url(#62b15ed40b)"><path fill="#efa693" d="M 12.054688 0.855469 L 12.117188 0.855469 L 12.117188 15.847656 L 12.054688 15.847656 Z M 12.054688 0.855469 " fill-opacity="1" fill-rule="nonzero"/></g><g clip-path="url(#3ed5995887)"><path fill="#efa693" d="M 11.457031 0.855469 L 11.515625 0.855469 L 11.515625 15.847656 L 11.457031 15.847656 Z M 11.457031 0.855469 " fill-opacity="1" fill-rule="nonzero"/></g><g clip-path="url(#19b964582a)"><path fill="#efa693" d="M 9.65625 0.855469 L 9.71875 0.855469 L 9.71875 15.847656 L 9.65625 15.847656 Z M 9.65625 0.855469 " fill-opacity="1" fill-rule="nonzero"/></g><g clip-path="url(#3d1cd10307)"><path fill="#efa693" d="M 8.457031 0.855469 L 8.519531 0.855469 L 8.519531 15.847656 L 8.457031 15.847656 Z M 8.457031 0.855469 " fill-opacity="1" fill-rule="nonzero"/></g><g clip-path="url(#1c481e4273)"><path fill="#efa693" d="M 7.859375 0.855469 L 7.917969 0.855469 L 7.917969 15.847656 L 7.859375 15.847656 Z M 7.859375 0.855469 " fill-opacity="1" fill-rule="nonzero"/><path fill="#efa693" d="M 7.257812 0.855469 L 7.320312 0.855469 L 7.320312 15.847656 L 7.257812 15.847656 Z M 7.257812 0.855469 " fill-opacity="1" fill-rule="nonzero"/></g><g clip-path="url(#19fe83c642)"><path fill="#efa693" d="M 6.660156 0.855469 L 6.71875 0.855469 L 6.71875 15.847656 L 6.660156 15.847656 Z M 6.660156 0.855469 " fill-opacity="1" fill-rule="nonzero"/><path fill="#efa693" d="M 6.058594 0.855469 L 6.121094 0.855469 L 6.121094 15.847656 L 6.058594 15.847656 Z M 6.058594 0.855469 " fill-opacity="1" fill-rule="nonzero"/></g><g clip-path="url(#51f5226568)"><path fill="#efa693" d="M 5.460938 0.855469 L 5.519531 0.855469 L 5.519531 15.847656 L 5.460938 15.847656 Z M 5.460938 0.855469 " fill-opacity="1" fill-rule="nonzero"/></g><g clip-path="url(#7f7c52b4e1)"><path fill="#efa693" d="M 4.859375 0.855469 L 4.921875 0.855469 L 4.921875 15.847656 L 4.859375 15.847656 Z M 4.859375 0.855469 " fill-opacity="1" fill-rule="nonzero"/><path fill="#efa693" d="M 4.261719 0.855469 L 4.320312 0.855469 L 4.320312 15.847656 L 4.261719 15.847656 Z M 4.261719 0.855469 " fill-opacity="1" fill-rule="nonzero"/></g><g clip-path="url(#8547dc216f)"><path fill="#efa693" d="M 3.660156 0.855469 L 3.71875 0.855469 L 3.71875 15.847656 L 3.660156 15.847656 Z M 3.660156 0.855469 " fill-opacity="1" fill-rule="nonzero"/><path fill="#efa693" d="M 3.0625 0.855469 L 3.121094 0.855469 L 3.121094 15.847656 L 3.0625 15.847656 Z M 3.0625 0.855469 " fill-opacity="1" fill-rule="nonzero"/></g><g clip-path="url(#2be90c2a5a)"><path fill="#efa693" d="M 2.460938 0.855469 L 2.519531 0.855469 L 2.519531 15.847656 L 2.460938 15.847656 Z M 2.460938 0.855469 " fill-opacity="1" fill-rule="nonzero"/></g><g clip-path="url(#4e29a21a37)"><path fill="#efa693" d="M 1.863281 0.855469 L 1.921875 0.855469 L 1.921875 15.847656 L 1.863281 15.847656 Z M 1.863281 0.855469 " fill-opacity="1" fill-rule="nonzero"/><path fill="#efa693" d="M 1.261719 0.855469 L 1.320312 0.855469 L 1.320312 15.847656 L 1.261719 15.847656 Z M 1.261719 0.855469 " fill-opacity="1" fill-rule="nonzero"/></g><g clip-path="url(#f4feecd41f)"><path fill="#efa693" d="M 15.714844 15.875 L 0.664062 15.875 L 0.664062 0.824219 L 15.714844 0.824219 Z M 0.722656 15.816406 L 15.652344 15.816406 L 15.652344 0.886719 L 0.722656 0.886719 Z M 0.722656 15.816406 " fill-opacity="1" fill-rule="nonzero"/></g></g></g></g></g><g clip-path="url(#039e33d4b7)"><g mask="url(#7b1b33ae11)"><g transform="matrix(1, 0, 0, 1, 0, 0.000000000000005329)"><g clip-path="url(#09f0a83dcc)"><g clip-path="url(#2aed36532e)"><path fill="#efa693" d="M -0.296875 1.425781 L 14.695312 1.425781 L 14.695312 1.484375 L -0.296875 1.484375 Z M -0.296875 1.425781 " fill-opacity="1" fill-rule="nonzero"/></g><g clip-path="url(#bded2da91e)"><path fill="#efa693" d="M -0.296875 3.824219 L 14.695312 3.824219 L 14.695312 3.882812 L -0.296875 3.882812 Z M -0.296875 3.824219 " fill-opacity="1" fill-rule="nonzero"/></g><g clip-path="url(#5f5f198711)"><path fill="#efa693" d="M -0.296875 6.222656 L 14.695312 6.222656 L 14.695312 6.28125 L -0.296875 6.28125 Z M -0.296875 6.222656 " fill-opacity="1" fill-rule="nonzero"/></g><g clip-path="url(#833771d052)"><path fill="#efa693" d="M -0.296875 7.421875 L 14.695312 7.421875 L 14.695312 7.480469 L -0.296875 7.480469 Z M -0.296875 7.421875 " fill-opacity="1" fill-rule="nonzero"/></g><g clip-path="url(#b27d58d92e)"><path fill="#efa693" d="M -0.296875 2.625 L 14.695312 2.625 L 14.695312 2.683594 L -0.296875 2.683594 Z M -0.296875 2.625 " fill-opacity="1" fill-rule="nonzero"/></g><g clip-path="url(#aefa6fd0ef)"><path fill="#efa693" d="M -0.296875 3.222656 L 14.695312 3.222656 L 14.695312 3.285156 L -0.296875 3.285156 Z M -0.296875 3.222656 " fill-opacity="1" fill-rule="nonzero"/></g><g clip-path="url(#3dbe4c5a09)"><path fill="#efa693" d="M -0.296875 5.621094 L 14.695312 5.621094 L 14.695312 5.683594 L -0.296875 5.683594 Z M -0.296875 5.621094 " fill-opacity="1" fill-rule="nonzero"/></g><g clip-path="url(#03b6f029b9)"><path fill="#efa693" d="M -0.296875 2.023438 L 14.695312 2.023438 L 14.695312 2.085938 L -0.296875 2.085938 Z M -0.296875 2.023438 " fill-opacity="1" fill-rule="nonzero"/></g><g clip-path="url(#0499031f7e)"><path fill="#efa693" d="M -0.296875 4.421875 L 14.695312 4.421875 L 14.695312 4.484375 L -0.296875 4.484375 Z M -0.296875 4.421875 " fill-opacity="1" fill-rule="nonzero"/></g><g clip-path="url(#9991499e85)"><path fill="#efa693" d="M -0.296875 5.023438 L 14.695312 5.023438 L 14.695312 5.082031 L -0.296875 5.082031 Z M -0.296875 5.023438 " fill-opacity="1" fill-rule="nonzero"/></g><g clip-path="url(#1270ae1942)"><path fill="#efa693" d="M -0.296875 6.820312 L 14.695312 6.820312 L 14.695312 6.882812 L -0.296875 6.882812 Z M -0.296875 6.820312 " fill-opacity="1" fill-rule="nonzero"/></g><g clip-path="url(#968035efc1)"><path fill="#efa693" d="M -0.296875 8.019531 L 14.695312 8.019531 L 14.695312 8.082031 L -0.296875 8.082031 Z M -0.296875 8.019531 " fill-opacity="1" fill-rule="nonzero"/><path fill="#efa693" d="M -0.296875 8.621094 L 14.695312 8.621094 L 14.695312 8.679688 L -0.296875 8.679688 Z M -0.296875 8.621094 " fill-opacity="1" fill-rule="nonzero"/></g><g clip-path="url(#932acf9a87)"><path fill="#efa693" d="M -0.296875 9.21875 L 14.695312 9.21875 L 14.695312 9.28125 L -0.296875 9.28125 Z M -0.296875 9.21875 " fill-opacity="1" fill-rule="nonzero"/><path fill="#efa693" d="M -0.296875 9.820312 L 14.695312 9.820312 L 14.695312 9.878906 L -0.296875 9.878906 Z M -0.296875 9.820312 " fill-opacity="1" fill-rule="nonzero"/></g><g clip-path="url(#106a0676f9)"><path fill="#efa693" d="M -0.296875 10.417969 L 14.695312 10.417969 L 14.695312 10.480469 L -0.296875 10.480469 Z M -0.296875 10.417969 " fill-opacity="1" fill-rule="nonzero"/></g><g clip-path="url(#1d8766d0be)"><path fill="#efa693" d="M -0.296875 11.019531 L 14.695312 11.019531 L 14.695312 11.078125 L -0.296875 11.078125 Z M -0.296875 11.019531 " fill-opacity="1" fill-rule="nonzero"/><path fill="#efa693" d="M -0.296875 11.617188 L 14.695312 11.617188 L 14.695312 11.679688 L -0.296875 11.679688 Z M -0.296875 11.617188 " fill-opacity="1" fill-rule="nonzero"/></g><g clip-path="url(#48c4461377)"><path fill="#efa693" d="M -0.296875 12.21875 L 14.695312 12.21875 L 14.695312 12.277344 L -0.296875 12.277344 Z M -0.296875 12.21875 " fill-opacity="1" fill-rule="nonzero"/><path fill="#efa693" d="M -0.296875 12.820312 L 14.695312 12.820312 L 14.695312 12.878906 L -0.296875 12.878906 Z M -0.296875 12.820312 " fill-opacity="1" fill-rule="nonzero"/></g><g clip-path="url(#1b90b434d5)"><path fill="#efa693" d="M -0.296875 13.417969 L 14.695312 13.417969 L 14.695312 13.476562 L -0.296875 13.476562 Z M -0.296875 13.417969 " fill-opacity="1" fill-rule="nonzero"/></g><g clip-path="url(#6875259b78)"><path fill="#efa693" d="M -0.296875 14.019531 L 14.695312 14.019531 L 14.695312 14.078125 L -0.296875 14.078125 Z M -0.296875 14.019531 " fill-opacity="1" fill-rule="nonzero"/><path fill="#efa693" d="M -0.296875 14.617188 L 14.695312 14.617188 L 14.695312 14.675781 L -0.296875 14.675781 Z M -0.296875 14.617188 " fill-opacity="1" fill-rule="nonzero"/></g><g clip-path="url(#ebe0f9adbf)"><path fill="#efa693" d="M -0.296875 15.21875 L 14.695312 15.21875 L 14.695312 15.277344 L -0.296875 15.277344 Z M -0.296875 15.21875 " fill-opacity="1" fill-rule="nonzero"/></g><g clip-path="url(#6b7d0e3a3c)"><path fill="#efa693" d="M 14.066406 0.855469 L 14.125 0.855469 L 14.125 15.847656 L 14.066406 15.847656 Z M 14.066406 0.855469 " fill-opacity="1" fill-rule="nonzero"/></g><g clip-path="url(#22fbdaf1a3)"><path fill="#efa693" d="M 11.664062 0.855469 L 11.726562 0.855469 L 11.726562 15.847656 L 11.664062 15.847656 Z M 11.664062 0.855469 " fill-opacity="1" fill-rule="nonzero"/></g><g clip-path="url(#1b30bdfbfd)"><path fill="#efa693" d="M 9.265625 0.855469 L 9.328125 0.855469 L 9.328125 15.847656 L 9.265625 15.847656 Z M 9.265625 0.855469 " fill-opacity="1" fill-rule="nonzero"/></g><g clip-path="url(#12554fabc4)"><path fill="#efa693" d="M 8.066406 0.855469 L 8.128906 0.855469 L 8.128906 15.847656 L 8.066406 15.847656 Z M 8.066406 0.855469 " fill-opacity="1" fill-rule="nonzero"/></g><g clip-path="url(#22bde4fa77)"><path fill="#efa693" d="M 12.863281 0.855469 L 12.925781 0.855469 L 12.925781 15.847656 L 12.863281 15.847656 Z M 12.863281 0.855469 " fill-opacity="1" fill-rule="nonzero"/><path fill="#efa693" d="M 12.265625 0.855469 L 12.324219 0.855469 L 12.324219 15.847656 L 12.265625 15.847656 Z M 12.265625 0.855469 " fill-opacity="1" fill-rule="nonzero"/></g><g clip-path="url(#4f2e294c78)"><path fill="#efa693" d="M 9.867188 0.855469 L 9.925781 0.855469 L 9.925781 15.847656 L 9.867188 15.847656 Z M 9.867188 0.855469 " fill-opacity="1" fill-rule="nonzero"/></g><g clip-path="url(#25ce6465ec)"><path fill="#efa693" d="M 13.464844 0.855469 L 13.523438 0.855469 L 13.523438 15.847656 L 13.464844 15.847656 Z M 13.464844 0.855469 " fill-opacity="1" fill-rule="nonzero"/></g><g clip-path="url(#1da77742f1)"><path fill="#efa693" d="M 11.066406 0.855469 L 11.125 0.855469 L 11.125 15.847656 L 11.066406 15.847656 Z M 11.066406 0.855469 " fill-opacity="1" fill-rule="nonzero"/></g><g clip-path="url(#307a73b97b)"><path fill="#efa693" d="M 10.464844 0.855469 L 10.527344 0.855469 L 10.527344 15.847656 L 10.464844 15.847656 Z M 10.464844 0.855469 " fill-opacity="1" fill-rule="nonzero"/></g><g clip-path="url(#d997cbd197)"><path fill="#efa693" d="M 8.667969 0.855469 L 8.726562 0.855469 L 8.726562 15.847656 L 8.667969 15.847656 Z M 8.667969 0.855469 " fill-opacity="1" fill-rule="nonzero"/></g><g clip-path="url(#a95bc02dfa)"><path fill="#efa693" d="M 7.46875 0.855469 L 7.527344 0.855469 L 7.527344 15.847656 L 7.46875 15.847656 Z M 7.46875 0.855469 " fill-opacity="1" fill-rule="nonzero"/></g><g clip-path="url(#252cd6b5b4)"><path fill="#efa693" d="M 6.867188 0.855469 L 6.929688 0.855469 L 6.929688 15.847656 L 6.867188 15.847656 Z M 6.867188 0.855469 " fill-opacity="1" fill-rule="nonzero"/><path fill="#efa693" d="M 6.269531 0.855469 L 6.328125 0.855469 L 6.328125 15.847656 L 6.269531 15.847656 Z M 6.269531 0.855469 " fill-opacity="1" fill-rule="nonzero"/></g><g clip-path="url(#e2f3216af5)"><path fill="#efa693" d="M 5.667969 0.855469 L 5.730469 0.855469 L 5.730469 15.847656 L 5.667969 15.847656 Z M 5.667969 0.855469 " fill-opacity="1" fill-rule="nonzero"/><path fill="#efa693" d="M 5.070312 0.855469 L 5.128906 0.855469 L 5.128906 15.847656 L 5.070312 15.847656 Z M 5.070312 0.855469 " fill-opacity="1" fill-rule="nonzero"/></g><g clip-path="url(#9e4504b7d3)"><path fill="#efa693" d="M 4.46875 0.855469 L 4.53125 0.855469 L 4.53125 15.847656 L 4.46875 15.847656 Z M 4.46875 0.855469 " fill-opacity="1" fill-rule="nonzero"/></g><g clip-path="url(#70aafefafd)"><path fill="#efa693" d="M 3.871094 0.855469 L 3.929688 0.855469 L 3.929688 15.847656 L 3.871094 15.847656 Z M 3.871094 0.855469 " fill-opacity="1" fill-rule="nonzero"/><path fill="#efa693" d="M 3.269531 0.855469 L 3.332031 0.855469 L 3.332031 15.847656 L 3.269531 15.847656 Z M 3.269531 0.855469 " fill-opacity="1" fill-rule="nonzero"/></g><g clip-path="url(#95be066305)"><path fill="#efa693" d="M 2.671875 0.855469 L 2.730469 0.855469 L 2.730469 15.847656 L 2.671875 15.847656 Z M 2.671875 0.855469 " fill-opacity="1" fill-rule="nonzero"/><path fill="#efa693" d="M 2.070312 0.855469 L 2.132812 0.855469 L 2.132812 15.847656 L 2.070312 15.847656 Z M 2.070312 0.855469 " fill-opacity="1" fill-rule="nonzero"/></g><g clip-path="url(#4297711934)"><path fill="#efa693" d="M 1.472656 0.855469 L 1.53125 0.855469 L 1.53125 15.847656 L 1.472656 15.847656 Z M 1.472656 0.855469 " fill-opacity="1" fill-rule="nonzero"/></g><g clip-path="url(#b9495c943a)"><path fill="#efa693" d="M 0.871094 0.855469 L 0.929688 0.855469 L 0.929688 15.847656 L 0.871094 15.847656 Z M 0.871094 0.855469 " fill-opacity="1" fill-rule="nonzero"/></g><g clip-path="url(#33695bf189)"><path fill="#efa693" d="M 14.722656 15.875 L -0.328125 15.875 L -0.328125 0.824219 L 14.722656 0.824219 Z M -0.269531 15.816406 L 14.664062 15.816406 L 14.664062 0.886719 L -0.269531 0.886719 Z M -0.269531 15.816406 " fill-opacity="1" fill-rule="nonzero"/></g></g></g></g></g></g></g></g><g clip-path="url(#a0fab5a6fa)"><g clip-path="url(#89d962204c)"><path fill="#000000" d="M 29.515625 0 L 0.484375 0 L 0.484375 29.03125 L 29.515625 29.03125 Z M 29.515625 0 " fill-opacity="1" fill-rule="nonzero"/></g></g><g clip-path="url(#5a6d15543f)"><g transform="matrix(1, 0, 0, 1, 0, 7)"><g clip-path="url(#1dd8ad046f)"><g fill="#a57e24" fill-opacity="1"><g transform="translate(0.917889, 10.661293)"><g><path d="M 2.0625 -5.390625 C 1.8125 -5.691406 1.59375 -5.9375 1.40625 -6.125 C 1.21875 -6.3125 1.03125 -6.457031 0.84375 -6.5625 C 0.65625 -6.675781 0.453125 -6.75 0.234375 -6.78125 L 0.234375 -6.984375 L 3 -6.984375 L 3 -6.75 L 1.65625 -6.75 C 2.132812 -6.613281 2.726562 -6.113281 3.4375 -5.25 L 6.78125 -1.09375 L 6.78125 0.1875 L 6.59375 0.1875 Z M 6.4375 -5.625 C 6.425781 -5.957031 6.390625 -6.191406 6.328125 -6.328125 C 6.273438 -6.460938 6.15625 -6.5625 5.96875 -6.625 C 5.78125 -6.6875 5.445312 -6.738281 4.96875 -6.78125 L 4.96875 -6.984375 L 7.953125 -6.984375 L 7.953125 -6.78125 C 7.585938 -6.738281 7.332031 -6.6875 7.1875 -6.625 C 7.050781 -6.5625 6.957031 -6.460938 6.90625 -6.328125 C 6.863281 -6.191406 6.835938 -5.957031 6.828125 -5.625 L 6.78125 -2.921875 L 6.484375 -2.921875 Z M 0.234375 -0.1875 C 0.597656 -0.238281 0.847656 -0.296875 0.984375 -0.359375 C 1.128906 -0.421875 1.222656 -0.519531 1.265625 -0.65625 C 1.316406 -0.789062 1.34375 -1.019531 1.34375 -1.34375 L 1.390625 -4.0625 L 1.6875 -4.0625 L 1.734375 -1.34375 C 1.742188 -1.019531 1.78125 -0.789062 1.84375 -0.65625 C 1.90625 -0.519531 2.03125 -0.421875 2.21875 -0.359375 C 2.40625 -0.296875 2.734375 -0.238281 3.203125 -0.1875 L 3.203125 0 L 0.234375 0 Z M 0.234375 -0.1875 "/></g></g></g><g fill="#a57e24" fill-opacity="1"><g transform="translate(9.039591, 10.661293)"><g><path d="M 1.5625 -5.109375 C 1.363281 -5.554688 1.195312 -5.890625 1.0625 -6.109375 C 0.9375 -6.328125 0.800781 -6.484375 0.65625 -6.578125 C 0.519531 -6.671875 0.335938 -6.738281 0.109375 -6.78125 L 0.109375 -6.984375 L 2.8125 -6.984375 L 2.8125 -6.75 L 1.046875 -6.75 C 1.390625 -6.675781 1.671875 -6.523438 1.890625 -6.296875 C 2.117188 -6.066406 2.332031 -5.726562 2.53125 -5.28125 L 4.28125 -1.203125 L 5.09375 -3.125 L 5.34375 -3.015625 L 4.03125 0.1875 L 3.796875 0.1875 Z M 4.796875 -5.109375 C 4.609375 -5.554688 4.445312 -5.890625 4.3125 -6.109375 C 4.1875 -6.328125 4.050781 -6.484375 3.90625 -6.578125 C 3.769531 -6.671875 3.585938 -6.738281 3.359375 -6.78125 L 3.359375 -6.984375 L 7.65625 -6.984375 L 7.65625 -6.78125 C 7.457031 -6.757812 7.296875 -6.710938 7.171875 -6.640625 C 7.046875 -6.566406 6.925781 -6.445312 6.8125 -6.28125 C 6.695312 -6.125 6.566406 -5.898438 6.421875 -5.609375 L 6.296875 -5.3125 L 6.078125 -5.421875 C 6.140625 -5.578125 6.1875 -5.722656 6.21875 -5.859375 C 6.257812 -6.003906 6.28125 -6.125 6.28125 -6.21875 C 6.28125 -6.375 6.253906 -6.488281 6.203125 -6.5625 C 6.160156 -6.632812 6.097656 -6.679688 6.015625 -6.703125 C 5.929688 -6.734375 5.8125 -6.75 5.65625 -6.75 L 4.296875 -6.75 C 4.628906 -6.675781 4.910156 -6.523438 5.140625 -6.296875 C 5.367188 -6.066406 5.582031 -5.726562 5.78125 -5.28125 L 7.6875 -0.828125 L 7.28125 0.1875 L 7.046875 0.1875 Z M 8.21875 -3.3125 C 8.445312 -3.90625 8.628906 -4.40625 8.765625 -4.8125 C 8.910156 -5.226562 9.003906 -5.53125 9.046875 -5.71875 C 9.085938 -5.90625 9.109375 -6.066406 9.109375 -6.203125 C 9.109375 -6.335938 9.082031 -6.441406 9.03125 -6.515625 C 8.988281 -6.597656 8.898438 -6.65625 8.765625 -6.6875 C 8.640625 -6.726562 8.453125 -6.757812 8.203125 -6.78125 L 8.203125 -6.984375 L 10.734375 -6.984375 L 10.734375 -6.78125 C 10.429688 -6.738281 10.1875 -6.628906 10 -6.453125 C 9.8125 -6.285156 9.632812 -6.003906 9.46875 -5.609375 L 8.46875 -3.21875 Z M 8.21875 -3.3125 "/></g></g></g><g fill="#a57e24" fill-opacity="1"><g transform="translate(19.883778, 10.661293)"><g><path d="M 0.234375 0 L 0.234375 -0.234375 L 2.25 -0.234375 C 1.945312 -0.316406 1.722656 -0.472656 1.578125 -0.703125 C 1.441406 -0.941406 1.375 -1.269531 1.375 -1.6875 L 1.375 -5.390625 C 1.375 -5.816406 1.347656 -6.113281 1.296875 -6.28125 C 1.253906 -6.457031 1.160156 -6.570312 1.015625 -6.625 C 0.867188 -6.6875 0.609375 -6.738281 0.234375 -6.78125 L 0.234375 -6.984375 L 1.296875 -6.984375 C 1.585938 -6.984375 1.804688 -6.929688 1.953125 -6.828125 C 2.097656 -6.722656 2.203125 -6.550781 2.265625 -6.3125 C 2.335938 -6.070312 2.375 -5.726562 2.375 -5.28125 L 2.375 -1.59375 C 2.375 -1.164062 2.394531 -0.863281 2.4375 -0.6875 C 2.476562 -0.519531 2.570312 -0.40625 2.71875 -0.34375 C 2.863281 -0.28125 3.128906 -0.226562 3.515625 -0.1875 L 3.515625 0 Z M 2.578125 -6.515625 C 2.503906 -6.734375 2.390625 -6.890625 2.234375 -6.984375 L 3.515625 -6.984375 L 3.515625 -6.78125 C 3.285156 -6.769531 3.09375 -6.742188 2.9375 -6.703125 C 2.789062 -6.660156 2.671875 -6.597656 2.578125 -6.515625 Z M 2.578125 -6.515625 "/></g></g></g><g fill="#a57e24" fill-opacity="1"><g transform="translate(23.624339, 10.661293)"><g><path d="M 2.84375 -0.046875 C 3.113281 -0.0546875 3.347656 -0.117188 3.546875 -0.234375 C 3.753906 -0.359375 3.910156 -0.523438 4.015625 -0.734375 C 4.128906 -0.941406 4.1875 -1.179688 4.1875 -1.453125 C 4.1875 -1.648438 4.148438 -1.820312 4.078125 -1.96875 C 4.003906 -2.113281 3.882812 -2.25 3.71875 -2.375 C 3.5625 -2.507812 3.332031 -2.65625 3.03125 -2.8125 L 1.90625 -3.390625 C 1.394531 -3.648438 1.003906 -3.941406 0.734375 -4.265625 C 0.460938 -4.585938 0.328125 -4.976562 0.328125 -5.4375 C 0.328125 -5.757812 0.40625 -6.046875 0.5625 -6.296875 C 0.726562 -6.554688 0.957031 -6.757812 1.25 -6.90625 C 1.550781 -7.0625 1.90625 -7.144531 2.3125 -7.15625 L 2.3125 -6.9375 C 2.125 -6.925781 1.945312 -6.859375 1.78125 -6.734375 C 1.625 -6.617188 1.5 -6.46875 1.40625 -6.28125 C 1.3125 -6.09375 1.265625 -5.882812 1.265625 -5.65625 C 1.265625 -5.351562 1.351562 -5.09375 1.53125 -4.875 C 1.71875 -4.65625 2.023438 -4.441406 2.453125 -4.234375 L 3.515625 -3.6875 C 4.066406 -3.40625 4.472656 -3.109375 4.734375 -2.796875 C 4.992188 -2.484375 5.125 -2.128906 5.125 -1.734375 C 5.125 -1.335938 5.03125 -1 4.84375 -0.71875 C 4.664062 -0.4375 4.40625 -0.21875 4.0625 -0.0625 C 3.71875 0.0820312 3.3125 0.164062 2.84375 0.1875 Z M 4.578125 -4.90625 C 4.421875 -5.550781 4.195312 -6.035156 3.90625 -6.359375 C 3.625 -6.679688 3.242188 -6.875 2.765625 -6.9375 L 2.765625 -7.15625 C 2.929688 -7.144531 3.082031 -7.125 3.21875 -7.09375 C 3.351562 -7.070312 3.46875 -7.046875 3.5625 -7.015625 C 3.664062 -6.984375 3.734375 -6.960938 3.765625 -6.953125 C 3.972656 -6.878906 4.128906 -6.84375 4.234375 -6.84375 C 4.378906 -6.84375 4.492188 -6.941406 4.578125 -7.140625 L 4.765625 -7.140625 L 4.765625 -4.90625 Z M 2.390625 0.1875 C 2.234375 0.175781 2.082031 0.15625 1.9375 0.125 C 1.800781 0.09375 1.679688 0.0625 1.578125 0.03125 C 1.484375 0 1.421875 -0.015625 1.390625 -0.015625 C 1.179688 -0.0976562 1.023438 -0.140625 0.921875 -0.140625 C 0.773438 -0.140625 0.660156 -0.0351562 0.578125 0.171875 L 0.40625 0.171875 L 0.40625 -2.0625 L 0.578125 -2.0625 C 0.734375 -1.414062 0.953125 -0.929688 1.234375 -0.609375 C 1.523438 -0.285156 1.910156 -0.0976562 2.390625 -0.046875 Z M 2.390625 0.1875 "/></g></g></g></g></g></g></svg>